M48
METRIC,TZ
T1C0.400
T2C0.600
T3C0.700
T4C0.762
T5C1.080
T6C1.300
T7C1.470
T8C2.400
T9C2.500
%
G90
G05
T1
X7562Y-38613
X10014Y-128813
X19612Y-53113
X22469Y-41260
X23360Y-42109
X23614Y-55859
X23865Y-46478
X23868Y-44458
X24626Y-47125
X25138Y-45211
X45662Y-38862
X54899Y-90713
X83762Y-38862
X90619Y-128813
X92999Y-90713
X107575Y-128813
X121575Y-128813
X121862Y-38862
X124099Y-90713
X133625Y-128838
X145675Y-128813
X159675Y-128813
X159962Y-38862
X169199Y-90713
X190631Y-128813
X198062Y-38862
X207299Y-90713
X236162Y-38862
X245398Y-128813
X250305Y-90713
X257448Y-107763
X263480Y-85603
X268560Y-55138
X269498Y-121813
X271100Y-57678
X271236Y-116188
X274262Y-38613
X275112Y-50863
X281261Y-69663
X282853Y-123718
X283498Y-128813
X286340Y-83063
X286340Y-88143
X286340Y-105923
X286340Y-111003
X289106Y-49423
T3
X7705Y-75903
X7705Y-83523
X10705Y-75903
X10705Y-83523
T4
X9929Y-117063
X12239Y-59913
X14620Y-78963
X19383Y-98013
X21647Y-50363
X33741Y-117063
X36051Y-59913
X40697Y-50363
X40814Y-78963
X45577Y-40863
X50339Y-98013
X55101Y-59913
X59864Y-78963
X64627Y-40863
X69389Y-98013
X74151Y-59913
X76534Y-117063
X78914Y-78963
X83677Y-40863
X88439Y-98013
X93201Y-59913
X97964Y-78963
X102727Y-40863
X107489Y-98013
X107490Y-117063
X112251Y-59913
X117014Y-78963
X121777Y-40863
X126539Y-98013
X131301Y-59913
X136064Y-78963
X140827Y-40863
X145589Y-98013
X145590Y-117063
X150351Y-59913
X155114Y-78963
X159877Y-40863
X164639Y-98013
X169401Y-59913
X174164Y-78963
X176546Y-117063
X178927Y-40863
X183689Y-98013
X188451Y-59913
X193214Y-78963
X197977Y-40863
X200358Y-117063
X202739Y-98013
X207501Y-59913
X212264Y-78963
X217027Y-40863
X221789Y-98013
X231313Y-117063
X231314Y-59913
X236077Y-40863
X243220Y-78963
X250363Y-98013
X250363Y-117063
X255126Y-59913
X255127Y-40863
X269413Y-117063
X274176Y-59913
X274177Y-40863
T5
X267280Y-95763
X267280Y-98303
X267280Y-100843
X267280Y-103383
X267280Y-105923
X267280Y-108463
X267280Y-111003
X267280Y-113543
X267290Y-83063
X267290Y-85603
X267290Y-88143
X267290Y-90683
X267290Y-93223
X282530Y-83063
X282530Y-85603
X282540Y-88143
X282540Y-90683
X282540Y-93223
X282540Y-95763
X282540Y-98303
X282540Y-100843
X282540Y-103383
X282540Y-105923
X282540Y-108463
X282540Y-111003
X282540Y-113543
T6
X34565Y-81362
X34565Y-87862
T7
X10752Y-43073
X17102Y-40533
X29802Y-43073
X36152Y-40533
T2
G00X19294Y-37889
M15
G01X19294Y-38489
M16
G05
G00X19294Y-41819
M15
G01X19294Y-42919
M16
G05
G00X27934Y-37889
M15
G01X27934Y-38489
M16
G05
G00X27934Y-41819
M15
G01X27934Y-42919
M16
G05
T5
G00X271100Y-56053
M15
G01X271220Y-56053
M16
G05
G00X273600Y-56053
M15
G01X273720Y-56053
M16
G05
G00X276100Y-56053
M15
G01X276220Y-56053
M16
G05
G00X278600Y-56053
M15
G01X278720Y-56053
M16
G05
T8
G00X29414Y-64315
M15
G01X31814Y-64315
M16
G05
G00X194714Y-121615
M15
G01X197114Y-121615
M16
G05
T9
G00X4623Y-92915
M15
G01X9123Y-92915
M16
G05
G00X286705Y-92915
M15
G01X291205Y-92915
M16
G05
T0
M30
