%TF.GenerationSoftware,KiCad,Pcbnew,(6.0.5)*%
%TF.CreationDate,2022-10-29T17:12:18+09:00*%
%TF.ProjectId,tatamikomo,74617461-6d69-46b6-9f6d-6f2e6b696361,rev?*%
%TF.SameCoordinates,Original*%
%TF.FileFunction,Legend,Top*%
%TF.FilePolarity,Positive*%
%FSLAX46Y46*%
G04 Gerber Fmt 4.6, Leading zero omitted, Abs format (unit mm)*
G04 Created by KiCad (PCBNEW (6.0.5)) date 2022-10-29 17:12:18*
%MOMM*%
%LPD*%
G01*
G04 APERTURE LIST*
%ADD10C,0.150000*%
%ADD11C,0.100000*%
%ADD12C,1.000000*%
G04 APERTURE END LIST*
D10*
%TO.C,SW59*%
X177821190Y-116217725D02*
X177964047Y-116265344D01*
X178202142Y-116265344D01*
X178297380Y-116217725D01*
X178344999Y-116170106D01*
X178392618Y-116074868D01*
X178392618Y-115979630D01*
X178344999Y-115884392D01*
X178297380Y-115836773D01*
X178202142Y-115789154D01*
X178011666Y-115741535D01*
X177916428Y-115693916D01*
X177868809Y-115646297D01*
X177821190Y-115551059D01*
X177821190Y-115455821D01*
X177868809Y-115360583D01*
X177916428Y-115312964D01*
X178011666Y-115265344D01*
X178249761Y-115265344D01*
X178392618Y-115312964D01*
X178725952Y-115265344D02*
X178964047Y-116265344D01*
X179154523Y-115551059D01*
X179344999Y-116265344D01*
X179583094Y-115265344D01*
X180440237Y-115265344D02*
X179964047Y-115265344D01*
X179916428Y-115741535D01*
X179964047Y-115693916D01*
X180059285Y-115646297D01*
X180297380Y-115646297D01*
X180392618Y-115693916D01*
X180440237Y-115741535D01*
X180487856Y-115836773D01*
X180487856Y-116074868D01*
X180440237Y-116170106D01*
X180392618Y-116217725D01*
X180297380Y-116265344D01*
X180059285Y-116265344D01*
X179964047Y-116217725D01*
X179916428Y-116170106D01*
X180964047Y-116265344D02*
X181154523Y-116265344D01*
X181249761Y-116217725D01*
X181297380Y-116170106D01*
X181392618Y-116027249D01*
X181440237Y-115836773D01*
X181440237Y-115455821D01*
X181392618Y-115360583D01*
X181344999Y-115312964D01*
X181249761Y-115265344D01*
X181059285Y-115265344D01*
X180964047Y-115312964D01*
X180916428Y-115360583D01*
X180868809Y-115455821D01*
X180868809Y-115693916D01*
X180916428Y-115789154D01*
X180964047Y-115836773D01*
X181059285Y-115884392D01*
X181249761Y-115884392D01*
X181344999Y-115836773D01*
X181392618Y-115789154D01*
X181440237Y-115693916D01*
%TO.C,SW61*%
X232588690Y-116217725D02*
X232731547Y-116265344D01*
X232969642Y-116265344D01*
X233064880Y-116217725D01*
X233112499Y-116170106D01*
X233160118Y-116074868D01*
X233160118Y-115979630D01*
X233112499Y-115884392D01*
X233064880Y-115836773D01*
X232969642Y-115789154D01*
X232779166Y-115741535D01*
X232683928Y-115693916D01*
X232636309Y-115646297D01*
X232588690Y-115551059D01*
X232588690Y-115455821D01*
X232636309Y-115360583D01*
X232683928Y-115312964D01*
X232779166Y-115265344D01*
X233017261Y-115265344D01*
X233160118Y-115312964D01*
X233493452Y-115265344D02*
X233731547Y-116265344D01*
X233922023Y-115551059D01*
X234112499Y-116265344D01*
X234350594Y-115265344D01*
X235160118Y-115265344D02*
X234969642Y-115265344D01*
X234874404Y-115312964D01*
X234826785Y-115360583D01*
X234731547Y-115503440D01*
X234683928Y-115693916D01*
X234683928Y-116074868D01*
X234731547Y-116170106D01*
X234779166Y-116217725D01*
X234874404Y-116265344D01*
X235064880Y-116265344D01*
X235160118Y-116217725D01*
X235207737Y-116170106D01*
X235255356Y-116074868D01*
X235255356Y-115836773D01*
X235207737Y-115741535D01*
X235160118Y-115693916D01*
X235064880Y-115646297D01*
X234874404Y-115646297D01*
X234779166Y-115693916D01*
X234731547Y-115741535D01*
X234683928Y-115836773D01*
X236207737Y-116265344D02*
X235636309Y-116265344D01*
X235922023Y-116265344D02*
X235922023Y-115265344D01*
X235826785Y-115408202D01*
X235731547Y-115503440D01*
X235636309Y-115551059D01*
%TO.C,SW8*%
X142578380Y-40017725D02*
X142721237Y-40065344D01*
X142959333Y-40065344D01*
X143054571Y-40017725D01*
X143102190Y-39970106D01*
X143149809Y-39874868D01*
X143149809Y-39779630D01*
X143102190Y-39684392D01*
X143054571Y-39636773D01*
X142959333Y-39589154D01*
X142768856Y-39541535D01*
X142673618Y-39493916D01*
X142625999Y-39446297D01*
X142578380Y-39351059D01*
X142578380Y-39255821D01*
X142625999Y-39160583D01*
X142673618Y-39112964D01*
X142768856Y-39065344D01*
X143006952Y-39065344D01*
X143149809Y-39112964D01*
X143483142Y-39065344D02*
X143721237Y-40065344D01*
X143911714Y-39351059D01*
X144102190Y-40065344D01*
X144340285Y-39065344D01*
X144864094Y-39493916D02*
X144768856Y-39446297D01*
X144721237Y-39398678D01*
X144673618Y-39303440D01*
X144673618Y-39255821D01*
X144721237Y-39160583D01*
X144768856Y-39112964D01*
X144864094Y-39065344D01*
X145054571Y-39065344D01*
X145149809Y-39112964D01*
X145197428Y-39160583D01*
X145245047Y-39255821D01*
X145245047Y-39303440D01*
X145197428Y-39398678D01*
X145149809Y-39446297D01*
X145054571Y-39493916D01*
X144864094Y-39493916D01*
X144768856Y-39541535D01*
X144721237Y-39589154D01*
X144673618Y-39684392D01*
X144673618Y-39874868D01*
X144721237Y-39970106D01*
X144768856Y-40017725D01*
X144864094Y-40065344D01*
X145054571Y-40065344D01*
X145149809Y-40017725D01*
X145197428Y-39970106D01*
X145245047Y-39874868D01*
X145245047Y-39684392D01*
X145197428Y-39589154D01*
X145149809Y-39541535D01*
X145054571Y-39493916D01*
%TO.C,SW46*%
X108764190Y-97167725D02*
X108907047Y-97215344D01*
X109145142Y-97215344D01*
X109240380Y-97167725D01*
X109287999Y-97120106D01*
X109335618Y-97024868D01*
X109335618Y-96929630D01*
X109287999Y-96834392D01*
X109240380Y-96786773D01*
X109145142Y-96739154D01*
X108954666Y-96691535D01*
X108859428Y-96643916D01*
X108811809Y-96596297D01*
X108764190Y-96501059D01*
X108764190Y-96405821D01*
X108811809Y-96310583D01*
X108859428Y-96262964D01*
X108954666Y-96215344D01*
X109192761Y-96215344D01*
X109335618Y-96262964D01*
X109668952Y-96215344D02*
X109907047Y-97215344D01*
X110097523Y-96501059D01*
X110287999Y-97215344D01*
X110526094Y-96215344D01*
X111335618Y-96548678D02*
X111335618Y-97215344D01*
X111097523Y-96167725D02*
X110859428Y-96882011D01*
X111478475Y-96882011D01*
X112287999Y-96215344D02*
X112097523Y-96215344D01*
X112002285Y-96262964D01*
X111954666Y-96310583D01*
X111859428Y-96453440D01*
X111811809Y-96643916D01*
X111811809Y-97024868D01*
X111859428Y-97120106D01*
X111907047Y-97167725D01*
X112002285Y-97215344D01*
X112192761Y-97215344D01*
X112287999Y-97167725D01*
X112335618Y-97120106D01*
X112383237Y-97024868D01*
X112383237Y-96786773D01*
X112335618Y-96691535D01*
X112287999Y-96643916D01*
X112192761Y-96596297D01*
X112002285Y-96596297D01*
X111907047Y-96643916D01*
X111859428Y-96691535D01*
X111811809Y-96786773D01*
%TO.C,SW55*%
X35016190Y-116217725D02*
X35159047Y-116265344D01*
X35397142Y-116265344D01*
X35492380Y-116217725D01*
X35539999Y-116170106D01*
X35587618Y-116074868D01*
X35587618Y-115979630D01*
X35539999Y-115884392D01*
X35492380Y-115836773D01*
X35397142Y-115789154D01*
X35206666Y-115741535D01*
X35111428Y-115693916D01*
X35063809Y-115646297D01*
X35016190Y-115551059D01*
X35016190Y-115455821D01*
X35063809Y-115360583D01*
X35111428Y-115312964D01*
X35206666Y-115265344D01*
X35444761Y-115265344D01*
X35587618Y-115312964D01*
X35920952Y-115265344D02*
X36159047Y-116265344D01*
X36349523Y-115551059D01*
X36539999Y-116265344D01*
X36778094Y-115265344D01*
X37635237Y-115265344D02*
X37159047Y-115265344D01*
X37111428Y-115741535D01*
X37159047Y-115693916D01*
X37254285Y-115646297D01*
X37492380Y-115646297D01*
X37587618Y-115693916D01*
X37635237Y-115741535D01*
X37682856Y-115836773D01*
X37682856Y-116074868D01*
X37635237Y-116170106D01*
X37587618Y-116217725D01*
X37492380Y-116265344D01*
X37254285Y-116265344D01*
X37159047Y-116217725D01*
X37111428Y-116170106D01*
X38587618Y-115265344D02*
X38111428Y-115265344D01*
X38063809Y-115741535D01*
X38111428Y-115693916D01*
X38206666Y-115646297D01*
X38444761Y-115646297D01*
X38539999Y-115693916D01*
X38587618Y-115741535D01*
X38635237Y-115836773D01*
X38635237Y-116074868D01*
X38587618Y-116170106D01*
X38539999Y-116217725D01*
X38444761Y-116265344D01*
X38206666Y-116265344D01*
X38111428Y-116217725D01*
X38063809Y-116170106D01*
%TO.C,SW37*%
X156389190Y-78117725D02*
X156532047Y-78165344D01*
X156770142Y-78165344D01*
X156865380Y-78117725D01*
X156912999Y-78070106D01*
X156960618Y-77974868D01*
X156960618Y-77879630D01*
X156912999Y-77784392D01*
X156865380Y-77736773D01*
X156770142Y-77689154D01*
X156579666Y-77641535D01*
X156484428Y-77593916D01*
X156436809Y-77546297D01*
X156389190Y-77451059D01*
X156389190Y-77355821D01*
X156436809Y-77260583D01*
X156484428Y-77212964D01*
X156579666Y-77165344D01*
X156817761Y-77165344D01*
X156960618Y-77212964D01*
X157293952Y-77165344D02*
X157532047Y-78165344D01*
X157722523Y-77451059D01*
X157912999Y-78165344D01*
X158151094Y-77165344D01*
X158436809Y-77165344D02*
X159055856Y-77165344D01*
X158722523Y-77546297D01*
X158865380Y-77546297D01*
X158960618Y-77593916D01*
X159008237Y-77641535D01*
X159055856Y-77736773D01*
X159055856Y-77974868D01*
X159008237Y-78070106D01*
X158960618Y-78117725D01*
X158865380Y-78165344D01*
X158579666Y-78165344D01*
X158484428Y-78117725D01*
X158436809Y-78070106D01*
X159389190Y-77165344D02*
X160055856Y-77165344D01*
X159627285Y-78165344D01*
%TO.C,SW49*%
X165914190Y-97167725D02*
X166057047Y-97215344D01*
X166295142Y-97215344D01*
X166390380Y-97167725D01*
X166437999Y-97120106D01*
X166485618Y-97024868D01*
X166485618Y-96929630D01*
X166437999Y-96834392D01*
X166390380Y-96786773D01*
X166295142Y-96739154D01*
X166104666Y-96691535D01*
X166009428Y-96643916D01*
X165961809Y-96596297D01*
X165914190Y-96501059D01*
X165914190Y-96405821D01*
X165961809Y-96310583D01*
X166009428Y-96262964D01*
X166104666Y-96215344D01*
X166342761Y-96215344D01*
X166485618Y-96262964D01*
X166818952Y-96215344D02*
X167057047Y-97215344D01*
X167247523Y-96501059D01*
X167437999Y-97215344D01*
X167676094Y-96215344D01*
X168485618Y-96548678D02*
X168485618Y-97215344D01*
X168247523Y-96167725D02*
X168009428Y-96882011D01*
X168628475Y-96882011D01*
X169057047Y-97215344D02*
X169247523Y-97215344D01*
X169342761Y-97167725D01*
X169390380Y-97120106D01*
X169485618Y-96977249D01*
X169533237Y-96786773D01*
X169533237Y-96405821D01*
X169485618Y-96310583D01*
X169437999Y-96262964D01*
X169342761Y-96215344D01*
X169152285Y-96215344D01*
X169057047Y-96262964D01*
X169009428Y-96310583D01*
X168961809Y-96405821D01*
X168961809Y-96643916D01*
X169009428Y-96739154D01*
X169057047Y-96786773D01*
X169152285Y-96834392D01*
X169342761Y-96834392D01*
X169437999Y-96786773D01*
X169485618Y-96739154D01*
X169533237Y-96643916D01*
%TO.C,SW51*%
X204014190Y-97167725D02*
X204157047Y-97215344D01*
X204395142Y-97215344D01*
X204490380Y-97167725D01*
X204537999Y-97120106D01*
X204585618Y-97024868D01*
X204585618Y-96929630D01*
X204537999Y-96834392D01*
X204490380Y-96786773D01*
X204395142Y-96739154D01*
X204204666Y-96691535D01*
X204109428Y-96643916D01*
X204061809Y-96596297D01*
X204014190Y-96501059D01*
X204014190Y-96405821D01*
X204061809Y-96310583D01*
X204109428Y-96262964D01*
X204204666Y-96215344D01*
X204442761Y-96215344D01*
X204585618Y-96262964D01*
X204918952Y-96215344D02*
X205157047Y-97215344D01*
X205347523Y-96501059D01*
X205537999Y-97215344D01*
X205776094Y-96215344D01*
X206633237Y-96215344D02*
X206157047Y-96215344D01*
X206109428Y-96691535D01*
X206157047Y-96643916D01*
X206252285Y-96596297D01*
X206490380Y-96596297D01*
X206585618Y-96643916D01*
X206633237Y-96691535D01*
X206680856Y-96786773D01*
X206680856Y-97024868D01*
X206633237Y-97120106D01*
X206585618Y-97167725D01*
X206490380Y-97215344D01*
X206252285Y-97215344D01*
X206157047Y-97167725D01*
X206109428Y-97120106D01*
X207633237Y-97215344D02*
X207061809Y-97215344D01*
X207347523Y-97215344D02*
X207347523Y-96215344D01*
X207252285Y-96358202D01*
X207157047Y-96453440D01*
X207061809Y-96501059D01*
%TO.C,SW1*%
X8728380Y-40017725D02*
X8871237Y-40065344D01*
X9109333Y-40065344D01*
X9204571Y-40017725D01*
X9252190Y-39970106D01*
X9299809Y-39874868D01*
X9299809Y-39779630D01*
X9252190Y-39684392D01*
X9204571Y-39636773D01*
X9109333Y-39589154D01*
X8918856Y-39541535D01*
X8823618Y-39493916D01*
X8775999Y-39446297D01*
X8728380Y-39351059D01*
X8728380Y-39255821D01*
X8775999Y-39160583D01*
X8823618Y-39112964D01*
X8918856Y-39065344D01*
X9156952Y-39065344D01*
X9299809Y-39112964D01*
X9633142Y-39065344D02*
X9871237Y-40065344D01*
X10061714Y-39351059D01*
X10252190Y-40065344D01*
X10490285Y-39065344D01*
X11395047Y-40065344D02*
X10823618Y-40065344D01*
X11109333Y-40065344D02*
X11109333Y-39065344D01*
X11014094Y-39208202D01*
X10918856Y-39303440D01*
X10823618Y-39351059D01*
%TO.C,SW27*%
X232589190Y-59067725D02*
X232732047Y-59115344D01*
X232970142Y-59115344D01*
X233065380Y-59067725D01*
X233112999Y-59020106D01*
X233160618Y-58924868D01*
X233160618Y-58829630D01*
X233112999Y-58734392D01*
X233065380Y-58686773D01*
X232970142Y-58639154D01*
X232779666Y-58591535D01*
X232684428Y-58543916D01*
X232636809Y-58496297D01*
X232589190Y-58401059D01*
X232589190Y-58305821D01*
X232636809Y-58210583D01*
X232684428Y-58162964D01*
X232779666Y-58115344D01*
X233017761Y-58115344D01*
X233160618Y-58162964D01*
X233493952Y-58115344D02*
X233732047Y-59115344D01*
X233922523Y-58401059D01*
X234112999Y-59115344D01*
X234351094Y-58115344D01*
X234684428Y-58210583D02*
X234732047Y-58162964D01*
X234827285Y-58115344D01*
X235065380Y-58115344D01*
X235160618Y-58162964D01*
X235208237Y-58210583D01*
X235255856Y-58305821D01*
X235255856Y-58401059D01*
X235208237Y-58543916D01*
X234636809Y-59115344D01*
X235255856Y-59115344D01*
X235589190Y-58115344D02*
X236255856Y-58115344D01*
X235827285Y-59115344D01*
%TO.C,SW17*%
X37326190Y-59067725D02*
X37469047Y-59115344D01*
X37707142Y-59115344D01*
X37802380Y-59067725D01*
X37849999Y-59020106D01*
X37897618Y-58924868D01*
X37897618Y-58829630D01*
X37849999Y-58734392D01*
X37802380Y-58686773D01*
X37707142Y-58639154D01*
X37516666Y-58591535D01*
X37421428Y-58543916D01*
X37373809Y-58496297D01*
X37326190Y-58401059D01*
X37326190Y-58305821D01*
X37373809Y-58210583D01*
X37421428Y-58162964D01*
X37516666Y-58115344D01*
X37754761Y-58115344D01*
X37897618Y-58162964D01*
X38230952Y-58115344D02*
X38469047Y-59115344D01*
X38659523Y-58401059D01*
X38849999Y-59115344D01*
X39088094Y-58115344D01*
X39992856Y-59115344D02*
X39421428Y-59115344D01*
X39707142Y-59115344D02*
X39707142Y-58115344D01*
X39611904Y-58258202D01*
X39516666Y-58353440D01*
X39421428Y-58401059D01*
X40326190Y-58115344D02*
X40992856Y-58115344D01*
X40564285Y-59115344D01*
%TO.C,SW14*%
X256402190Y-40017725D02*
X256545047Y-40065344D01*
X256783142Y-40065344D01*
X256878380Y-40017725D01*
X256925999Y-39970106D01*
X256973618Y-39874868D01*
X256973618Y-39779630D01*
X256925999Y-39684392D01*
X256878380Y-39636773D01*
X256783142Y-39589154D01*
X256592666Y-39541535D01*
X256497428Y-39493916D01*
X256449809Y-39446297D01*
X256402190Y-39351059D01*
X256402190Y-39255821D01*
X256449809Y-39160583D01*
X256497428Y-39112964D01*
X256592666Y-39065344D01*
X256830761Y-39065344D01*
X256973618Y-39112964D01*
X257306952Y-39065344D02*
X257545047Y-40065344D01*
X257735523Y-39351059D01*
X257925999Y-40065344D01*
X258164094Y-39065344D01*
X259068856Y-40065344D02*
X258497428Y-40065344D01*
X258783142Y-40065344D02*
X258783142Y-39065344D01*
X258687904Y-39208202D01*
X258592666Y-39303440D01*
X258497428Y-39351059D01*
X259925999Y-39398678D02*
X259925999Y-40065344D01*
X259687904Y-39017725D02*
X259449809Y-39732011D01*
X260068856Y-39732011D01*
%TO.C,SW3*%
X47328380Y-40017725D02*
X47471237Y-40065344D01*
X47709333Y-40065344D01*
X47804571Y-40017725D01*
X47852190Y-39970106D01*
X47899809Y-39874868D01*
X47899809Y-39779630D01*
X47852190Y-39684392D01*
X47804571Y-39636773D01*
X47709333Y-39589154D01*
X47518856Y-39541535D01*
X47423618Y-39493916D01*
X47375999Y-39446297D01*
X47328380Y-39351059D01*
X47328380Y-39255821D01*
X47375999Y-39160583D01*
X47423618Y-39112964D01*
X47518856Y-39065344D01*
X47756952Y-39065344D01*
X47899809Y-39112964D01*
X48233142Y-39065344D02*
X48471237Y-40065344D01*
X48661714Y-39351059D01*
X48852190Y-40065344D01*
X49090285Y-39065344D01*
X49375999Y-39065344D02*
X49995047Y-39065344D01*
X49661714Y-39446297D01*
X49804571Y-39446297D01*
X49899809Y-39493916D01*
X49947428Y-39541535D01*
X49995047Y-39636773D01*
X49995047Y-39874868D01*
X49947428Y-39970106D01*
X49899809Y-40017725D01*
X49804571Y-40065344D01*
X49518856Y-40065344D01*
X49423618Y-40017725D01*
X49375999Y-39970106D01*
%TO.C,SW41*%
X244495190Y-78117725D02*
X244638047Y-78165344D01*
X244876142Y-78165344D01*
X244971380Y-78117725D01*
X245018999Y-78070106D01*
X245066618Y-77974868D01*
X245066618Y-77879630D01*
X245018999Y-77784392D01*
X244971380Y-77736773D01*
X244876142Y-77689154D01*
X244685666Y-77641535D01*
X244590428Y-77593916D01*
X244542809Y-77546297D01*
X244495190Y-77451059D01*
X244495190Y-77355821D01*
X244542809Y-77260583D01*
X244590428Y-77212964D01*
X244685666Y-77165344D01*
X244923761Y-77165344D01*
X245066618Y-77212964D01*
X245399952Y-77165344D02*
X245638047Y-78165344D01*
X245828523Y-77451059D01*
X246018999Y-78165344D01*
X246257094Y-77165344D01*
X247066618Y-77498678D02*
X247066618Y-78165344D01*
X246828523Y-77117725D02*
X246590428Y-77832011D01*
X247209475Y-77832011D01*
X248114237Y-78165344D02*
X247542809Y-78165344D01*
X247828523Y-78165344D02*
X247828523Y-77165344D01*
X247733285Y-77308202D01*
X247638047Y-77403440D01*
X247542809Y-77451059D01*
%TO.C,SW33*%
X80189190Y-78117725D02*
X80332047Y-78165344D01*
X80570142Y-78165344D01*
X80665380Y-78117725D01*
X80712999Y-78070106D01*
X80760618Y-77974868D01*
X80760618Y-77879630D01*
X80712999Y-77784392D01*
X80665380Y-77736773D01*
X80570142Y-77689154D01*
X80379666Y-77641535D01*
X80284428Y-77593916D01*
X80236809Y-77546297D01*
X80189190Y-77451059D01*
X80189190Y-77355821D01*
X80236809Y-77260583D01*
X80284428Y-77212964D01*
X80379666Y-77165344D01*
X80617761Y-77165344D01*
X80760618Y-77212964D01*
X81093952Y-77165344D02*
X81332047Y-78165344D01*
X81522523Y-77451059D01*
X81712999Y-78165344D01*
X81951094Y-77165344D01*
X82236809Y-77165344D02*
X82855856Y-77165344D01*
X82522523Y-77546297D01*
X82665380Y-77546297D01*
X82760618Y-77593916D01*
X82808237Y-77641535D01*
X82855856Y-77736773D01*
X82855856Y-77974868D01*
X82808237Y-78070106D01*
X82760618Y-78117725D01*
X82665380Y-78165344D01*
X82379666Y-78165344D01*
X82284428Y-78117725D01*
X82236809Y-78070106D01*
X83189190Y-77165344D02*
X83808237Y-77165344D01*
X83474904Y-77546297D01*
X83617761Y-77546297D01*
X83712999Y-77593916D01*
X83760618Y-77641535D01*
X83808237Y-77736773D01*
X83808237Y-77974868D01*
X83760618Y-78070106D01*
X83712999Y-78117725D01*
X83617761Y-78165344D01*
X83332047Y-78165344D01*
X83236809Y-78117725D01*
X83189190Y-78070106D01*
%TO.C,SW11*%
X199252190Y-40017725D02*
X199395047Y-40065344D01*
X199633142Y-40065344D01*
X199728380Y-40017725D01*
X199775999Y-39970106D01*
X199823618Y-39874868D01*
X199823618Y-39779630D01*
X199775999Y-39684392D01*
X199728380Y-39636773D01*
X199633142Y-39589154D01*
X199442666Y-39541535D01*
X199347428Y-39493916D01*
X199299809Y-39446297D01*
X199252190Y-39351059D01*
X199252190Y-39255821D01*
X199299809Y-39160583D01*
X199347428Y-39112964D01*
X199442666Y-39065344D01*
X199680761Y-39065344D01*
X199823618Y-39112964D01*
X200156952Y-39065344D02*
X200395047Y-40065344D01*
X200585523Y-39351059D01*
X200775999Y-40065344D01*
X201014094Y-39065344D01*
X201918856Y-40065344D02*
X201347428Y-40065344D01*
X201633142Y-40065344D02*
X201633142Y-39065344D01*
X201537904Y-39208202D01*
X201442666Y-39303440D01*
X201347428Y-39351059D01*
X202871237Y-40065344D02*
X202299809Y-40065344D01*
X202585523Y-40065344D02*
X202585523Y-39065344D01*
X202490285Y-39208202D01*
X202395047Y-39303440D01*
X202299809Y-39351059D01*
%TO.C,SW62*%
X251638690Y-116217725D02*
X251781547Y-116265344D01*
X252019642Y-116265344D01*
X252114880Y-116217725D01*
X252162499Y-116170106D01*
X252210118Y-116074868D01*
X252210118Y-115979630D01*
X252162499Y-115884392D01*
X252114880Y-115836773D01*
X252019642Y-115789154D01*
X251829166Y-115741535D01*
X251733928Y-115693916D01*
X251686309Y-115646297D01*
X251638690Y-115551059D01*
X251638690Y-115455821D01*
X251686309Y-115360583D01*
X251733928Y-115312964D01*
X251829166Y-115265344D01*
X252067261Y-115265344D01*
X252210118Y-115312964D01*
X252543452Y-115265344D02*
X252781547Y-116265344D01*
X252972023Y-115551059D01*
X253162499Y-116265344D01*
X253400594Y-115265344D01*
X254210118Y-115265344D02*
X254019642Y-115265344D01*
X253924404Y-115312964D01*
X253876785Y-115360583D01*
X253781547Y-115503440D01*
X253733928Y-115693916D01*
X253733928Y-116074868D01*
X253781547Y-116170106D01*
X253829166Y-116217725D01*
X253924404Y-116265344D01*
X254114880Y-116265344D01*
X254210118Y-116217725D01*
X254257737Y-116170106D01*
X254305356Y-116074868D01*
X254305356Y-115836773D01*
X254257737Y-115741535D01*
X254210118Y-115693916D01*
X254114880Y-115646297D01*
X253924404Y-115646297D01*
X253829166Y-115693916D01*
X253781547Y-115741535D01*
X253733928Y-115836773D01*
X254686309Y-115360583D02*
X254733928Y-115312964D01*
X254829166Y-115265344D01*
X255067261Y-115265344D01*
X255162499Y-115312964D01*
X255210118Y-115360583D01*
X255257737Y-115455821D01*
X255257737Y-115551059D01*
X255210118Y-115693916D01*
X254638690Y-116265344D01*
X255257737Y-116265344D01*
%TO.C,SW54*%
X11204190Y-116217725D02*
X11347047Y-116265344D01*
X11585142Y-116265344D01*
X11680380Y-116217725D01*
X11727999Y-116170106D01*
X11775618Y-116074868D01*
X11775618Y-115979630D01*
X11727999Y-115884392D01*
X11680380Y-115836773D01*
X11585142Y-115789154D01*
X11394666Y-115741535D01*
X11299428Y-115693916D01*
X11251809Y-115646297D01*
X11204190Y-115551059D01*
X11204190Y-115455821D01*
X11251809Y-115360583D01*
X11299428Y-115312964D01*
X11394666Y-115265344D01*
X11632761Y-115265344D01*
X11775618Y-115312964D01*
X12108952Y-115265344D02*
X12347047Y-116265344D01*
X12537523Y-115551059D01*
X12727999Y-116265344D01*
X12966094Y-115265344D01*
X13823237Y-115265344D02*
X13347047Y-115265344D01*
X13299428Y-115741535D01*
X13347047Y-115693916D01*
X13442285Y-115646297D01*
X13680380Y-115646297D01*
X13775618Y-115693916D01*
X13823237Y-115741535D01*
X13870856Y-115836773D01*
X13870856Y-116074868D01*
X13823237Y-116170106D01*
X13775618Y-116217725D01*
X13680380Y-116265344D01*
X13442285Y-116265344D01*
X13347047Y-116217725D01*
X13299428Y-116170106D01*
X14727999Y-115598678D02*
X14727999Y-116265344D01*
X14489904Y-115217725D02*
X14251809Y-115932011D01*
X14870856Y-115932011D01*
%TO.C,SW50*%
X184964190Y-97167725D02*
X185107047Y-97215344D01*
X185345142Y-97215344D01*
X185440380Y-97167725D01*
X185487999Y-97120106D01*
X185535618Y-97024868D01*
X185535618Y-96929630D01*
X185487999Y-96834392D01*
X185440380Y-96786773D01*
X185345142Y-96739154D01*
X185154666Y-96691535D01*
X185059428Y-96643916D01*
X185011809Y-96596297D01*
X184964190Y-96501059D01*
X184964190Y-96405821D01*
X185011809Y-96310583D01*
X185059428Y-96262964D01*
X185154666Y-96215344D01*
X185392761Y-96215344D01*
X185535618Y-96262964D01*
X185868952Y-96215344D02*
X186107047Y-97215344D01*
X186297523Y-96501059D01*
X186487999Y-97215344D01*
X186726094Y-96215344D01*
X187583237Y-96215344D02*
X187107047Y-96215344D01*
X187059428Y-96691535D01*
X187107047Y-96643916D01*
X187202285Y-96596297D01*
X187440380Y-96596297D01*
X187535618Y-96643916D01*
X187583237Y-96691535D01*
X187630856Y-96786773D01*
X187630856Y-97024868D01*
X187583237Y-97120106D01*
X187535618Y-97167725D01*
X187440380Y-97215344D01*
X187202285Y-97215344D01*
X187107047Y-97167725D01*
X187059428Y-97120106D01*
X188249904Y-96215344D02*
X188345142Y-96215344D01*
X188440380Y-96262964D01*
X188487999Y-96310583D01*
X188535618Y-96405821D01*
X188583237Y-96596297D01*
X188583237Y-96834392D01*
X188535618Y-97024868D01*
X188487999Y-97120106D01*
X188440380Y-97167725D01*
X188345142Y-97215344D01*
X188249904Y-97215344D01*
X188154666Y-97167725D01*
X188107047Y-97120106D01*
X188059428Y-97024868D01*
X188011809Y-96834392D01*
X188011809Y-96596297D01*
X188059428Y-96405821D01*
X188107047Y-96310583D01*
X188154666Y-96262964D01*
X188249904Y-96215344D01*
%TO.C,SW16*%
X13514190Y-59067725D02*
X13657047Y-59115344D01*
X13895142Y-59115344D01*
X13990380Y-59067725D01*
X14037999Y-59020106D01*
X14085618Y-58924868D01*
X14085618Y-58829630D01*
X14037999Y-58734392D01*
X13990380Y-58686773D01*
X13895142Y-58639154D01*
X13704666Y-58591535D01*
X13609428Y-58543916D01*
X13561809Y-58496297D01*
X13514190Y-58401059D01*
X13514190Y-58305821D01*
X13561809Y-58210583D01*
X13609428Y-58162964D01*
X13704666Y-58115344D01*
X13942761Y-58115344D01*
X14085618Y-58162964D01*
X14418952Y-58115344D02*
X14657047Y-59115344D01*
X14847523Y-58401059D01*
X15037999Y-59115344D01*
X15276094Y-58115344D01*
X16180856Y-59115344D02*
X15609428Y-59115344D01*
X15895142Y-59115344D02*
X15895142Y-58115344D01*
X15799904Y-58258202D01*
X15704666Y-58353440D01*
X15609428Y-58401059D01*
X17037999Y-58115344D02*
X16847523Y-58115344D01*
X16752285Y-58162964D01*
X16704666Y-58210583D01*
X16609428Y-58353440D01*
X16561809Y-58543916D01*
X16561809Y-58924868D01*
X16609428Y-59020106D01*
X16657047Y-59067725D01*
X16752285Y-59115344D01*
X16942761Y-59115344D01*
X17037999Y-59067725D01*
X17085618Y-59020106D01*
X17133237Y-58924868D01*
X17133237Y-58686773D01*
X17085618Y-58591535D01*
X17037999Y-58543916D01*
X16942761Y-58496297D01*
X16752285Y-58496297D01*
X16657047Y-58543916D01*
X16609428Y-58591535D01*
X16561809Y-58686773D01*
%TO.C,SW15*%
X275452190Y-40017725D02*
X275595047Y-40065344D01*
X275833142Y-40065344D01*
X275928380Y-40017725D01*
X275975999Y-39970106D01*
X276023618Y-39874868D01*
X276023618Y-39779630D01*
X275975999Y-39684392D01*
X275928380Y-39636773D01*
X275833142Y-39589154D01*
X275642666Y-39541535D01*
X275547428Y-39493916D01*
X275499809Y-39446297D01*
X275452190Y-39351059D01*
X275452190Y-39255821D01*
X275499809Y-39160583D01*
X275547428Y-39112964D01*
X275642666Y-39065344D01*
X275880761Y-39065344D01*
X276023618Y-39112964D01*
X276356952Y-39065344D02*
X276595047Y-40065344D01*
X276785523Y-39351059D01*
X276975999Y-40065344D01*
X277214094Y-39065344D01*
X278118856Y-40065344D02*
X277547428Y-40065344D01*
X277833142Y-40065344D02*
X277833142Y-39065344D01*
X277737904Y-39208202D01*
X277642666Y-39303440D01*
X277547428Y-39351059D01*
X279023618Y-39065344D02*
X278547428Y-39065344D01*
X278499809Y-39541535D01*
X278547428Y-39493916D01*
X278642666Y-39446297D01*
X278880761Y-39446297D01*
X278975999Y-39493916D01*
X279023618Y-39541535D01*
X279071237Y-39636773D01*
X279071237Y-39874868D01*
X279023618Y-39970106D01*
X278975999Y-40017725D01*
X278880761Y-40065344D01*
X278642666Y-40065344D01*
X278547428Y-40017725D01*
X278499809Y-39970106D01*
%TO.C,SW42*%
X20658190Y-97167725D02*
X20801047Y-97215344D01*
X21039142Y-97215344D01*
X21134380Y-97167725D01*
X21181999Y-97120106D01*
X21229618Y-97024868D01*
X21229618Y-96929630D01*
X21181999Y-96834392D01*
X21134380Y-96786773D01*
X21039142Y-96739154D01*
X20848666Y-96691535D01*
X20753428Y-96643916D01*
X20705809Y-96596297D01*
X20658190Y-96501059D01*
X20658190Y-96405821D01*
X20705809Y-96310583D01*
X20753428Y-96262964D01*
X20848666Y-96215344D01*
X21086761Y-96215344D01*
X21229618Y-96262964D01*
X21562952Y-96215344D02*
X21801047Y-97215344D01*
X21991523Y-96501059D01*
X22181999Y-97215344D01*
X22420094Y-96215344D01*
X23229618Y-96548678D02*
X23229618Y-97215344D01*
X22991523Y-96167725D02*
X22753428Y-96882011D01*
X23372475Y-96882011D01*
X23705809Y-96310583D02*
X23753428Y-96262964D01*
X23848666Y-96215344D01*
X24086761Y-96215344D01*
X24181999Y-96262964D01*
X24229618Y-96310583D01*
X24277237Y-96405821D01*
X24277237Y-96501059D01*
X24229618Y-96643916D01*
X23658190Y-97215344D01*
X24277237Y-97215344D01*
%TO.C,SW20*%
X94476190Y-59067725D02*
X94619047Y-59115344D01*
X94857142Y-59115344D01*
X94952380Y-59067725D01*
X94999999Y-59020106D01*
X95047618Y-58924868D01*
X95047618Y-58829630D01*
X94999999Y-58734392D01*
X94952380Y-58686773D01*
X94857142Y-58639154D01*
X94666666Y-58591535D01*
X94571428Y-58543916D01*
X94523809Y-58496297D01*
X94476190Y-58401059D01*
X94476190Y-58305821D01*
X94523809Y-58210583D01*
X94571428Y-58162964D01*
X94666666Y-58115344D01*
X94904761Y-58115344D01*
X95047618Y-58162964D01*
X95380952Y-58115344D02*
X95619047Y-59115344D01*
X95809523Y-58401059D01*
X95999999Y-59115344D01*
X96238094Y-58115344D01*
X96571428Y-58210583D02*
X96619047Y-58162964D01*
X96714285Y-58115344D01*
X96952380Y-58115344D01*
X97047618Y-58162964D01*
X97095237Y-58210583D01*
X97142856Y-58305821D01*
X97142856Y-58401059D01*
X97095237Y-58543916D01*
X96523809Y-59115344D01*
X97142856Y-59115344D01*
X97761904Y-58115344D02*
X97857142Y-58115344D01*
X97952380Y-58162964D01*
X97999999Y-58210583D01*
X98047618Y-58305821D01*
X98095237Y-58496297D01*
X98095237Y-58734392D01*
X98047618Y-58924868D01*
X97999999Y-59020106D01*
X97952380Y-59067725D01*
X97857142Y-59115344D01*
X97761904Y-59115344D01*
X97666666Y-59067725D01*
X97619047Y-59020106D01*
X97571428Y-58924868D01*
X97523809Y-58734392D01*
X97523809Y-58496297D01*
X97571428Y-58305821D01*
X97619047Y-58210583D01*
X97666666Y-58162964D01*
X97761904Y-58115344D01*
%TO.C,SW5*%
X85428380Y-40017725D02*
X85571237Y-40065344D01*
X85809333Y-40065344D01*
X85904571Y-40017725D01*
X85952190Y-39970106D01*
X85999809Y-39874868D01*
X85999809Y-39779630D01*
X85952190Y-39684392D01*
X85904571Y-39636773D01*
X85809333Y-39589154D01*
X85618856Y-39541535D01*
X85523618Y-39493916D01*
X85475999Y-39446297D01*
X85428380Y-39351059D01*
X85428380Y-39255821D01*
X85475999Y-39160583D01*
X85523618Y-39112964D01*
X85618856Y-39065344D01*
X85856952Y-39065344D01*
X85999809Y-39112964D01*
X86333142Y-39065344D02*
X86571237Y-40065344D01*
X86761714Y-39351059D01*
X86952190Y-40065344D01*
X87190285Y-39065344D01*
X88047428Y-39065344D02*
X87571237Y-39065344D01*
X87523618Y-39541535D01*
X87571237Y-39493916D01*
X87666475Y-39446297D01*
X87904571Y-39446297D01*
X87999809Y-39493916D01*
X88047428Y-39541535D01*
X88095047Y-39636773D01*
X88095047Y-39874868D01*
X88047428Y-39970106D01*
X87999809Y-40017725D01*
X87904571Y-40065344D01*
X87666475Y-40065344D01*
X87571237Y-40017725D01*
X87523618Y-39970106D01*
%TO.C,SW34*%
X99239190Y-78117725D02*
X99382047Y-78165344D01*
X99620142Y-78165344D01*
X99715380Y-78117725D01*
X99762999Y-78070106D01*
X99810618Y-77974868D01*
X99810618Y-77879630D01*
X99762999Y-77784392D01*
X99715380Y-77736773D01*
X99620142Y-77689154D01*
X99429666Y-77641535D01*
X99334428Y-77593916D01*
X99286809Y-77546297D01*
X99239190Y-77451059D01*
X99239190Y-77355821D01*
X99286809Y-77260583D01*
X99334428Y-77212964D01*
X99429666Y-77165344D01*
X99667761Y-77165344D01*
X99810618Y-77212964D01*
X100143952Y-77165344D02*
X100382047Y-78165344D01*
X100572523Y-77451059D01*
X100762999Y-78165344D01*
X101001094Y-77165344D01*
X101286809Y-77165344D02*
X101905856Y-77165344D01*
X101572523Y-77546297D01*
X101715380Y-77546297D01*
X101810618Y-77593916D01*
X101858237Y-77641535D01*
X101905856Y-77736773D01*
X101905856Y-77974868D01*
X101858237Y-78070106D01*
X101810618Y-78117725D01*
X101715380Y-78165344D01*
X101429666Y-78165344D01*
X101334428Y-78117725D01*
X101286809Y-78070106D01*
X102762999Y-77498678D02*
X102762999Y-78165344D01*
X102524904Y-77117725D02*
X102286809Y-77832011D01*
X102905856Y-77832011D01*
%TO.C,SW7*%
X123528380Y-40017725D02*
X123671237Y-40065344D01*
X123909333Y-40065344D01*
X124004571Y-40017725D01*
X124052190Y-39970106D01*
X124099809Y-39874868D01*
X124099809Y-39779630D01*
X124052190Y-39684392D01*
X124004571Y-39636773D01*
X123909333Y-39589154D01*
X123718856Y-39541535D01*
X123623618Y-39493916D01*
X123575999Y-39446297D01*
X123528380Y-39351059D01*
X123528380Y-39255821D01*
X123575999Y-39160583D01*
X123623618Y-39112964D01*
X123718856Y-39065344D01*
X123956952Y-39065344D01*
X124099809Y-39112964D01*
X124433142Y-39065344D02*
X124671237Y-40065344D01*
X124861714Y-39351059D01*
X125052190Y-40065344D01*
X125290285Y-39065344D01*
X125575999Y-39065344D02*
X126242666Y-39065344D01*
X125814094Y-40065344D01*
%TO.C,SW2*%
X27778380Y-40017725D02*
X27921237Y-40065344D01*
X28159333Y-40065344D01*
X28254571Y-40017725D01*
X28302190Y-39970106D01*
X28349809Y-39874868D01*
X28349809Y-39779630D01*
X28302190Y-39684392D01*
X28254571Y-39636773D01*
X28159333Y-39589154D01*
X27968856Y-39541535D01*
X27873618Y-39493916D01*
X27825999Y-39446297D01*
X27778380Y-39351059D01*
X27778380Y-39255821D01*
X27825999Y-39160583D01*
X27873618Y-39112964D01*
X27968856Y-39065344D01*
X28206952Y-39065344D01*
X28349809Y-39112964D01*
X28683142Y-39065344D02*
X28921237Y-40065344D01*
X29111714Y-39351059D01*
X29302190Y-40065344D01*
X29540285Y-39065344D01*
X29873618Y-39160583D02*
X29921237Y-39112964D01*
X30016475Y-39065344D01*
X30254571Y-39065344D01*
X30349809Y-39112964D01*
X30397428Y-39160583D01*
X30445047Y-39255821D01*
X30445047Y-39351059D01*
X30397428Y-39493916D01*
X29825999Y-40065344D01*
X30445047Y-40065344D01*
%TO.C,SW28*%
X256401190Y-59067725D02*
X256544047Y-59115344D01*
X256782142Y-59115344D01*
X256877380Y-59067725D01*
X256924999Y-59020106D01*
X256972618Y-58924868D01*
X256972618Y-58829630D01*
X256924999Y-58734392D01*
X256877380Y-58686773D01*
X256782142Y-58639154D01*
X256591666Y-58591535D01*
X256496428Y-58543916D01*
X256448809Y-58496297D01*
X256401190Y-58401059D01*
X256401190Y-58305821D01*
X256448809Y-58210583D01*
X256496428Y-58162964D01*
X256591666Y-58115344D01*
X256829761Y-58115344D01*
X256972618Y-58162964D01*
X257305952Y-58115344D02*
X257544047Y-59115344D01*
X257734523Y-58401059D01*
X257924999Y-59115344D01*
X258163094Y-58115344D01*
X258496428Y-58210583D02*
X258544047Y-58162964D01*
X258639285Y-58115344D01*
X258877380Y-58115344D01*
X258972618Y-58162964D01*
X259020237Y-58210583D01*
X259067856Y-58305821D01*
X259067856Y-58401059D01*
X259020237Y-58543916D01*
X258448809Y-59115344D01*
X259067856Y-59115344D01*
X259639285Y-58543916D02*
X259544047Y-58496297D01*
X259496428Y-58448678D01*
X259448809Y-58353440D01*
X259448809Y-58305821D01*
X259496428Y-58210583D01*
X259544047Y-58162964D01*
X259639285Y-58115344D01*
X259829761Y-58115344D01*
X259924999Y-58162964D01*
X259972618Y-58210583D01*
X260020237Y-58305821D01*
X260020237Y-58353440D01*
X259972618Y-58448678D01*
X259924999Y-58496297D01*
X259829761Y-58543916D01*
X259639285Y-58543916D01*
X259544047Y-58591535D01*
X259496428Y-58639154D01*
X259448809Y-58734392D01*
X259448809Y-58924868D01*
X259496428Y-59020106D01*
X259544047Y-59067725D01*
X259639285Y-59115344D01*
X259829761Y-59115344D01*
X259924999Y-59067725D01*
X259972618Y-59020106D01*
X260020237Y-58924868D01*
X260020237Y-58734392D01*
X259972618Y-58639154D01*
X259924999Y-58591535D01*
X259829761Y-58543916D01*
%TO.C,SW25*%
X189726190Y-59067725D02*
X189869047Y-59115344D01*
X190107142Y-59115344D01*
X190202380Y-59067725D01*
X190249999Y-59020106D01*
X190297618Y-58924868D01*
X190297618Y-58829630D01*
X190249999Y-58734392D01*
X190202380Y-58686773D01*
X190107142Y-58639154D01*
X189916666Y-58591535D01*
X189821428Y-58543916D01*
X189773809Y-58496297D01*
X189726190Y-58401059D01*
X189726190Y-58305821D01*
X189773809Y-58210583D01*
X189821428Y-58162964D01*
X189916666Y-58115344D01*
X190154761Y-58115344D01*
X190297618Y-58162964D01*
X190630952Y-58115344D02*
X190869047Y-59115344D01*
X191059523Y-58401059D01*
X191249999Y-59115344D01*
X191488094Y-58115344D01*
X191821428Y-58210583D02*
X191869047Y-58162964D01*
X191964285Y-58115344D01*
X192202380Y-58115344D01*
X192297618Y-58162964D01*
X192345237Y-58210583D01*
X192392856Y-58305821D01*
X192392856Y-58401059D01*
X192345237Y-58543916D01*
X191773809Y-59115344D01*
X192392856Y-59115344D01*
X193297618Y-58115344D02*
X192821428Y-58115344D01*
X192773809Y-58591535D01*
X192821428Y-58543916D01*
X192916666Y-58496297D01*
X193154761Y-58496297D01*
X193249999Y-58543916D01*
X193297618Y-58591535D01*
X193345237Y-58686773D01*
X193345237Y-58924868D01*
X193297618Y-59020106D01*
X193249999Y-59067725D01*
X193154761Y-59115344D01*
X192916666Y-59115344D01*
X192821428Y-59067725D01*
X192773809Y-59020106D01*
%TO.C,SW45*%
X89714190Y-97167725D02*
X89857047Y-97215344D01*
X90095142Y-97215344D01*
X90190380Y-97167725D01*
X90237999Y-97120106D01*
X90285618Y-97024868D01*
X90285618Y-96929630D01*
X90237999Y-96834392D01*
X90190380Y-96786773D01*
X90095142Y-96739154D01*
X89904666Y-96691535D01*
X89809428Y-96643916D01*
X89761809Y-96596297D01*
X89714190Y-96501059D01*
X89714190Y-96405821D01*
X89761809Y-96310583D01*
X89809428Y-96262964D01*
X89904666Y-96215344D01*
X90142761Y-96215344D01*
X90285618Y-96262964D01*
X90618952Y-96215344D02*
X90857047Y-97215344D01*
X91047523Y-96501059D01*
X91237999Y-97215344D01*
X91476094Y-96215344D01*
X92285618Y-96548678D02*
X92285618Y-97215344D01*
X92047523Y-96167725D02*
X91809428Y-96882011D01*
X92428475Y-96882011D01*
X93285618Y-96215344D02*
X92809428Y-96215344D01*
X92761809Y-96691535D01*
X92809428Y-96643916D01*
X92904666Y-96596297D01*
X93142761Y-96596297D01*
X93237999Y-96643916D01*
X93285618Y-96691535D01*
X93333237Y-96786773D01*
X93333237Y-97024868D01*
X93285618Y-97120106D01*
X93237999Y-97167725D01*
X93142761Y-97215344D01*
X92904666Y-97215344D01*
X92809428Y-97167725D01*
X92761809Y-97120106D01*
%TO.C,SW24*%
X170676190Y-59067725D02*
X170819047Y-59115344D01*
X171057142Y-59115344D01*
X171152380Y-59067725D01*
X171199999Y-59020106D01*
X171247618Y-58924868D01*
X171247618Y-58829630D01*
X171199999Y-58734392D01*
X171152380Y-58686773D01*
X171057142Y-58639154D01*
X170866666Y-58591535D01*
X170771428Y-58543916D01*
X170723809Y-58496297D01*
X170676190Y-58401059D01*
X170676190Y-58305821D01*
X170723809Y-58210583D01*
X170771428Y-58162964D01*
X170866666Y-58115344D01*
X171104761Y-58115344D01*
X171247618Y-58162964D01*
X171580952Y-58115344D02*
X171819047Y-59115344D01*
X172009523Y-58401059D01*
X172199999Y-59115344D01*
X172438094Y-58115344D01*
X172771428Y-58210583D02*
X172819047Y-58162964D01*
X172914285Y-58115344D01*
X173152380Y-58115344D01*
X173247618Y-58162964D01*
X173295237Y-58210583D01*
X173342856Y-58305821D01*
X173342856Y-58401059D01*
X173295237Y-58543916D01*
X172723809Y-59115344D01*
X173342856Y-59115344D01*
X174199999Y-58448678D02*
X174199999Y-59115344D01*
X173961904Y-58067725D02*
X173723809Y-58782011D01*
X174342856Y-58782011D01*
%TO.C,SW44*%
X70664190Y-97167725D02*
X70807047Y-97215344D01*
X71045142Y-97215344D01*
X71140380Y-97167725D01*
X71187999Y-97120106D01*
X71235618Y-97024868D01*
X71235618Y-96929630D01*
X71187999Y-96834392D01*
X71140380Y-96786773D01*
X71045142Y-96739154D01*
X70854666Y-96691535D01*
X70759428Y-96643916D01*
X70711809Y-96596297D01*
X70664190Y-96501059D01*
X70664190Y-96405821D01*
X70711809Y-96310583D01*
X70759428Y-96262964D01*
X70854666Y-96215344D01*
X71092761Y-96215344D01*
X71235618Y-96262964D01*
X71568952Y-96215344D02*
X71807047Y-97215344D01*
X71997523Y-96501059D01*
X72187999Y-97215344D01*
X72426094Y-96215344D01*
X73235618Y-96548678D02*
X73235618Y-97215344D01*
X72997523Y-96167725D02*
X72759428Y-96882011D01*
X73378475Y-96882011D01*
X74187999Y-96548678D02*
X74187999Y-97215344D01*
X73949904Y-96167725D02*
X73711809Y-96882011D01*
X74330856Y-96882011D01*
%TO.C,SW40*%
X213539190Y-78117725D02*
X213682047Y-78165344D01*
X213920142Y-78165344D01*
X214015380Y-78117725D01*
X214062999Y-78070106D01*
X214110618Y-77974868D01*
X214110618Y-77879630D01*
X214062999Y-77784392D01*
X214015380Y-77736773D01*
X213920142Y-77689154D01*
X213729666Y-77641535D01*
X213634428Y-77593916D01*
X213586809Y-77546297D01*
X213539190Y-77451059D01*
X213539190Y-77355821D01*
X213586809Y-77260583D01*
X213634428Y-77212964D01*
X213729666Y-77165344D01*
X213967761Y-77165344D01*
X214110618Y-77212964D01*
X214443952Y-77165344D02*
X214682047Y-78165344D01*
X214872523Y-77451059D01*
X215062999Y-78165344D01*
X215301094Y-77165344D01*
X216110618Y-77498678D02*
X216110618Y-78165344D01*
X215872523Y-77117725D02*
X215634428Y-77832011D01*
X216253475Y-77832011D01*
X216824904Y-77165344D02*
X216920142Y-77165344D01*
X217015380Y-77212964D01*
X217062999Y-77260583D01*
X217110618Y-77355821D01*
X217158237Y-77546297D01*
X217158237Y-77784392D01*
X217110618Y-77974868D01*
X217062999Y-78070106D01*
X217015380Y-78117725D01*
X216920142Y-78165344D01*
X216824904Y-78165344D01*
X216729666Y-78117725D01*
X216682047Y-78070106D01*
X216634428Y-77974868D01*
X216586809Y-77784392D01*
X216586809Y-77546297D01*
X216634428Y-77355821D01*
X216682047Y-77260583D01*
X216729666Y-77212964D01*
X216824904Y-77165344D01*
%TO.C,SW10*%
X180202190Y-40017725D02*
X180345047Y-40065344D01*
X180583142Y-40065344D01*
X180678380Y-40017725D01*
X180725999Y-39970106D01*
X180773618Y-39874868D01*
X180773618Y-39779630D01*
X180725999Y-39684392D01*
X180678380Y-39636773D01*
X180583142Y-39589154D01*
X180392666Y-39541535D01*
X180297428Y-39493916D01*
X180249809Y-39446297D01*
X180202190Y-39351059D01*
X180202190Y-39255821D01*
X180249809Y-39160583D01*
X180297428Y-39112964D01*
X180392666Y-39065344D01*
X180630761Y-39065344D01*
X180773618Y-39112964D01*
X181106952Y-39065344D02*
X181345047Y-40065344D01*
X181535523Y-39351059D01*
X181725999Y-40065344D01*
X181964094Y-39065344D01*
X182868856Y-40065344D02*
X182297428Y-40065344D01*
X182583142Y-40065344D02*
X182583142Y-39065344D01*
X182487904Y-39208202D01*
X182392666Y-39303440D01*
X182297428Y-39351059D01*
X183487904Y-39065344D02*
X183583142Y-39065344D01*
X183678380Y-39112964D01*
X183725999Y-39160583D01*
X183773618Y-39255821D01*
X183821237Y-39446297D01*
X183821237Y-39684392D01*
X183773618Y-39874868D01*
X183725999Y-39970106D01*
X183678380Y-40017725D01*
X183583142Y-40065344D01*
X183487904Y-40065344D01*
X183392666Y-40017725D01*
X183345047Y-39970106D01*
X183297428Y-39874868D01*
X183249809Y-39684392D01*
X183249809Y-39446297D01*
X183297428Y-39255821D01*
X183345047Y-39160583D01*
X183392666Y-39112964D01*
X183487904Y-39065344D01*
%TO.C,SW43*%
X51614190Y-97167725D02*
X51757047Y-97215344D01*
X51995142Y-97215344D01*
X52090380Y-97167725D01*
X52137999Y-97120106D01*
X52185618Y-97024868D01*
X52185618Y-96929630D01*
X52137999Y-96834392D01*
X52090380Y-96786773D01*
X51995142Y-96739154D01*
X51804666Y-96691535D01*
X51709428Y-96643916D01*
X51661809Y-96596297D01*
X51614190Y-96501059D01*
X51614190Y-96405821D01*
X51661809Y-96310583D01*
X51709428Y-96262964D01*
X51804666Y-96215344D01*
X52042761Y-96215344D01*
X52185618Y-96262964D01*
X52518952Y-96215344D02*
X52757047Y-97215344D01*
X52947523Y-96501059D01*
X53137999Y-97215344D01*
X53376094Y-96215344D01*
X54185618Y-96548678D02*
X54185618Y-97215344D01*
X53947523Y-96167725D02*
X53709428Y-96882011D01*
X54328475Y-96882011D01*
X54614190Y-96215344D02*
X55233237Y-96215344D01*
X54899904Y-96596297D01*
X55042761Y-96596297D01*
X55137999Y-96643916D01*
X55185618Y-96691535D01*
X55233237Y-96786773D01*
X55233237Y-97024868D01*
X55185618Y-97120106D01*
X55137999Y-97167725D01*
X55042761Y-97215344D01*
X54757047Y-97215344D01*
X54661809Y-97167725D01*
X54614190Y-97120106D01*
%TO.C,SW63*%
X270688690Y-116217725D02*
X270831547Y-116265344D01*
X271069642Y-116265344D01*
X271164880Y-116217725D01*
X271212499Y-116170106D01*
X271260118Y-116074868D01*
X271260118Y-115979630D01*
X271212499Y-115884392D01*
X271164880Y-115836773D01*
X271069642Y-115789154D01*
X270879166Y-115741535D01*
X270783928Y-115693916D01*
X270736309Y-115646297D01*
X270688690Y-115551059D01*
X270688690Y-115455821D01*
X270736309Y-115360583D01*
X270783928Y-115312964D01*
X270879166Y-115265344D01*
X271117261Y-115265344D01*
X271260118Y-115312964D01*
X271593452Y-115265344D02*
X271831547Y-116265344D01*
X272022023Y-115551059D01*
X272212499Y-116265344D01*
X272450594Y-115265344D01*
X273260118Y-115265344D02*
X273069642Y-115265344D01*
X272974404Y-115312964D01*
X272926785Y-115360583D01*
X272831547Y-115503440D01*
X272783928Y-115693916D01*
X272783928Y-116074868D01*
X272831547Y-116170106D01*
X272879166Y-116217725D01*
X272974404Y-116265344D01*
X273164880Y-116265344D01*
X273260118Y-116217725D01*
X273307737Y-116170106D01*
X273355356Y-116074868D01*
X273355356Y-115836773D01*
X273307737Y-115741535D01*
X273260118Y-115693916D01*
X273164880Y-115646297D01*
X272974404Y-115646297D01*
X272879166Y-115693916D01*
X272831547Y-115741535D01*
X272783928Y-115836773D01*
X273688690Y-115265344D02*
X274307737Y-115265344D01*
X273974404Y-115646297D01*
X274117261Y-115646297D01*
X274212499Y-115693916D01*
X274260118Y-115741535D01*
X274307737Y-115836773D01*
X274307737Y-116074868D01*
X274260118Y-116170106D01*
X274212499Y-116217725D01*
X274117261Y-116265344D01*
X273831547Y-116265344D01*
X273736309Y-116217725D01*
X273688690Y-116170106D01*
%TO.C,SW38*%
X175439190Y-78117725D02*
X175582047Y-78165344D01*
X175820142Y-78165344D01*
X175915380Y-78117725D01*
X175962999Y-78070106D01*
X176010618Y-77974868D01*
X176010618Y-77879630D01*
X175962999Y-77784392D01*
X175915380Y-77736773D01*
X175820142Y-77689154D01*
X175629666Y-77641535D01*
X175534428Y-77593916D01*
X175486809Y-77546297D01*
X175439190Y-77451059D01*
X175439190Y-77355821D01*
X175486809Y-77260583D01*
X175534428Y-77212964D01*
X175629666Y-77165344D01*
X175867761Y-77165344D01*
X176010618Y-77212964D01*
X176343952Y-77165344D02*
X176582047Y-78165344D01*
X176772523Y-77451059D01*
X176962999Y-78165344D01*
X177201094Y-77165344D01*
X177486809Y-77165344D02*
X178105856Y-77165344D01*
X177772523Y-77546297D01*
X177915380Y-77546297D01*
X178010618Y-77593916D01*
X178058237Y-77641535D01*
X178105856Y-77736773D01*
X178105856Y-77974868D01*
X178058237Y-78070106D01*
X178010618Y-78117725D01*
X177915380Y-78165344D01*
X177629666Y-78165344D01*
X177534428Y-78117725D01*
X177486809Y-78070106D01*
X178677285Y-77593916D02*
X178582047Y-77546297D01*
X178534428Y-77498678D01*
X178486809Y-77403440D01*
X178486809Y-77355821D01*
X178534428Y-77260583D01*
X178582047Y-77212964D01*
X178677285Y-77165344D01*
X178867761Y-77165344D01*
X178962999Y-77212964D01*
X179010618Y-77260583D01*
X179058237Y-77355821D01*
X179058237Y-77403440D01*
X179010618Y-77498678D01*
X178962999Y-77546297D01*
X178867761Y-77593916D01*
X178677285Y-77593916D01*
X178582047Y-77641535D01*
X178534428Y-77689154D01*
X178486809Y-77784392D01*
X178486809Y-77974868D01*
X178534428Y-78070106D01*
X178582047Y-78117725D01*
X178677285Y-78165344D01*
X178867761Y-78165344D01*
X178962999Y-78117725D01*
X179010618Y-78070106D01*
X179058237Y-77974868D01*
X179058237Y-77784392D01*
X179010618Y-77689154D01*
X178962999Y-77641535D01*
X178867761Y-77593916D01*
%TO.C,SW6*%
X104478380Y-40017725D02*
X104621237Y-40065344D01*
X104859333Y-40065344D01*
X104954571Y-40017725D01*
X105002190Y-39970106D01*
X105049809Y-39874868D01*
X105049809Y-39779630D01*
X105002190Y-39684392D01*
X104954571Y-39636773D01*
X104859333Y-39589154D01*
X104668856Y-39541535D01*
X104573618Y-39493916D01*
X104525999Y-39446297D01*
X104478380Y-39351059D01*
X104478380Y-39255821D01*
X104525999Y-39160583D01*
X104573618Y-39112964D01*
X104668856Y-39065344D01*
X104906952Y-39065344D01*
X105049809Y-39112964D01*
X105383142Y-39065344D02*
X105621237Y-40065344D01*
X105811714Y-39351059D01*
X106002190Y-40065344D01*
X106240285Y-39065344D01*
X107049809Y-39065344D02*
X106859333Y-39065344D01*
X106764094Y-39112964D01*
X106716475Y-39160583D01*
X106621237Y-39303440D01*
X106573618Y-39493916D01*
X106573618Y-39874868D01*
X106621237Y-39970106D01*
X106668856Y-40017725D01*
X106764094Y-40065344D01*
X106954571Y-40065344D01*
X107049809Y-40017725D01*
X107097428Y-39970106D01*
X107145047Y-39874868D01*
X107145047Y-39636773D01*
X107097428Y-39541535D01*
X107049809Y-39493916D01*
X106954571Y-39446297D01*
X106764094Y-39446297D01*
X106668856Y-39493916D01*
X106621237Y-39541535D01*
X106573618Y-39636773D01*
%TO.C,SW48*%
X146864190Y-97167725D02*
X147007047Y-97215344D01*
X147245142Y-97215344D01*
X147340380Y-97167725D01*
X147387999Y-97120106D01*
X147435618Y-97024868D01*
X147435618Y-96929630D01*
X147387999Y-96834392D01*
X147340380Y-96786773D01*
X147245142Y-96739154D01*
X147054666Y-96691535D01*
X146959428Y-96643916D01*
X146911809Y-96596297D01*
X146864190Y-96501059D01*
X146864190Y-96405821D01*
X146911809Y-96310583D01*
X146959428Y-96262964D01*
X147054666Y-96215344D01*
X147292761Y-96215344D01*
X147435618Y-96262964D01*
X147768952Y-96215344D02*
X148007047Y-97215344D01*
X148197523Y-96501059D01*
X148387999Y-97215344D01*
X148626094Y-96215344D01*
X149435618Y-96548678D02*
X149435618Y-97215344D01*
X149197523Y-96167725D02*
X148959428Y-96882011D01*
X149578475Y-96882011D01*
X150102285Y-96643916D02*
X150007047Y-96596297D01*
X149959428Y-96548678D01*
X149911809Y-96453440D01*
X149911809Y-96405821D01*
X149959428Y-96310583D01*
X150007047Y-96262964D01*
X150102285Y-96215344D01*
X150292761Y-96215344D01*
X150387999Y-96262964D01*
X150435618Y-96310583D01*
X150483237Y-96405821D01*
X150483237Y-96453440D01*
X150435618Y-96548678D01*
X150387999Y-96596297D01*
X150292761Y-96643916D01*
X150102285Y-96643916D01*
X150007047Y-96691535D01*
X149959428Y-96739154D01*
X149911809Y-96834392D01*
X149911809Y-97024868D01*
X149959428Y-97120106D01*
X150007047Y-97167725D01*
X150102285Y-97215344D01*
X150292761Y-97215344D01*
X150387999Y-97167725D01*
X150435618Y-97120106D01*
X150483237Y-97024868D01*
X150483237Y-96834392D01*
X150435618Y-96739154D01*
X150387999Y-96691535D01*
X150292761Y-96643916D01*
%TO.C,SW18*%
X56376190Y-59067725D02*
X56519047Y-59115344D01*
X56757142Y-59115344D01*
X56852380Y-59067725D01*
X56899999Y-59020106D01*
X56947618Y-58924868D01*
X56947618Y-58829630D01*
X56899999Y-58734392D01*
X56852380Y-58686773D01*
X56757142Y-58639154D01*
X56566666Y-58591535D01*
X56471428Y-58543916D01*
X56423809Y-58496297D01*
X56376190Y-58401059D01*
X56376190Y-58305821D01*
X56423809Y-58210583D01*
X56471428Y-58162964D01*
X56566666Y-58115344D01*
X56804761Y-58115344D01*
X56947618Y-58162964D01*
X57280952Y-58115344D02*
X57519047Y-59115344D01*
X57709523Y-58401059D01*
X57899999Y-59115344D01*
X58138094Y-58115344D01*
X59042856Y-59115344D02*
X58471428Y-59115344D01*
X58757142Y-59115344D02*
X58757142Y-58115344D01*
X58661904Y-58258202D01*
X58566666Y-58353440D01*
X58471428Y-58401059D01*
X59614285Y-58543916D02*
X59519047Y-58496297D01*
X59471428Y-58448678D01*
X59423809Y-58353440D01*
X59423809Y-58305821D01*
X59471428Y-58210583D01*
X59519047Y-58162964D01*
X59614285Y-58115344D01*
X59804761Y-58115344D01*
X59899999Y-58162964D01*
X59947618Y-58210583D01*
X59995237Y-58305821D01*
X59995237Y-58353440D01*
X59947618Y-58448678D01*
X59899999Y-58496297D01*
X59804761Y-58543916D01*
X59614285Y-58543916D01*
X59519047Y-58591535D01*
X59471428Y-58639154D01*
X59423809Y-58734392D01*
X59423809Y-58924868D01*
X59471428Y-59020106D01*
X59519047Y-59067725D01*
X59614285Y-59115344D01*
X59804761Y-59115344D01*
X59899999Y-59067725D01*
X59947618Y-59020106D01*
X59995237Y-58924868D01*
X59995237Y-58734392D01*
X59947618Y-58639154D01*
X59899999Y-58591535D01*
X59804761Y-58543916D01*
%TO.C,SW12*%
X218302190Y-40017725D02*
X218445047Y-40065344D01*
X218683142Y-40065344D01*
X218778380Y-40017725D01*
X218825999Y-39970106D01*
X218873618Y-39874868D01*
X218873618Y-39779630D01*
X218825999Y-39684392D01*
X218778380Y-39636773D01*
X218683142Y-39589154D01*
X218492666Y-39541535D01*
X218397428Y-39493916D01*
X218349809Y-39446297D01*
X218302190Y-39351059D01*
X218302190Y-39255821D01*
X218349809Y-39160583D01*
X218397428Y-39112964D01*
X218492666Y-39065344D01*
X218730761Y-39065344D01*
X218873618Y-39112964D01*
X219206952Y-39065344D02*
X219445047Y-40065344D01*
X219635523Y-39351059D01*
X219825999Y-40065344D01*
X220064094Y-39065344D01*
X220968856Y-40065344D02*
X220397428Y-40065344D01*
X220683142Y-40065344D02*
X220683142Y-39065344D01*
X220587904Y-39208202D01*
X220492666Y-39303440D01*
X220397428Y-39351059D01*
X221349809Y-39160583D02*
X221397428Y-39112964D01*
X221492666Y-39065344D01*
X221730761Y-39065344D01*
X221825999Y-39112964D01*
X221873618Y-39160583D01*
X221921237Y-39255821D01*
X221921237Y-39351059D01*
X221873618Y-39493916D01*
X221302190Y-40065344D01*
X221921237Y-40065344D01*
%TO.C,SW9*%
X161628380Y-40017725D02*
X161771237Y-40065344D01*
X162009333Y-40065344D01*
X162104571Y-40017725D01*
X162152190Y-39970106D01*
X162199809Y-39874868D01*
X162199809Y-39779630D01*
X162152190Y-39684392D01*
X162104571Y-39636773D01*
X162009333Y-39589154D01*
X161818856Y-39541535D01*
X161723618Y-39493916D01*
X161675999Y-39446297D01*
X161628380Y-39351059D01*
X161628380Y-39255821D01*
X161675999Y-39160583D01*
X161723618Y-39112964D01*
X161818856Y-39065344D01*
X162056952Y-39065344D01*
X162199809Y-39112964D01*
X162533142Y-39065344D02*
X162771237Y-40065344D01*
X162961714Y-39351059D01*
X163152190Y-40065344D01*
X163390285Y-39065344D01*
X163818856Y-40065344D02*
X164009333Y-40065344D01*
X164104571Y-40017725D01*
X164152190Y-39970106D01*
X164247428Y-39827249D01*
X164295047Y-39636773D01*
X164295047Y-39255821D01*
X164247428Y-39160583D01*
X164199809Y-39112964D01*
X164104571Y-39065344D01*
X163914094Y-39065344D01*
X163818856Y-39112964D01*
X163771237Y-39160583D01*
X163723618Y-39255821D01*
X163723618Y-39493916D01*
X163771237Y-39589154D01*
X163818856Y-39636773D01*
X163914094Y-39684392D01*
X164104571Y-39684392D01*
X164199809Y-39636773D01*
X164247428Y-39589154D01*
X164295047Y-39493916D01*
%TO.C,SW26*%
X208776190Y-59067725D02*
X208919047Y-59115344D01*
X209157142Y-59115344D01*
X209252380Y-59067725D01*
X209299999Y-59020106D01*
X209347618Y-58924868D01*
X209347618Y-58829630D01*
X209299999Y-58734392D01*
X209252380Y-58686773D01*
X209157142Y-58639154D01*
X208966666Y-58591535D01*
X208871428Y-58543916D01*
X208823809Y-58496297D01*
X208776190Y-58401059D01*
X208776190Y-58305821D01*
X208823809Y-58210583D01*
X208871428Y-58162964D01*
X208966666Y-58115344D01*
X209204761Y-58115344D01*
X209347618Y-58162964D01*
X209680952Y-58115344D02*
X209919047Y-59115344D01*
X210109523Y-58401059D01*
X210299999Y-59115344D01*
X210538094Y-58115344D01*
X210871428Y-58210583D02*
X210919047Y-58162964D01*
X211014285Y-58115344D01*
X211252380Y-58115344D01*
X211347618Y-58162964D01*
X211395237Y-58210583D01*
X211442856Y-58305821D01*
X211442856Y-58401059D01*
X211395237Y-58543916D01*
X210823809Y-59115344D01*
X211442856Y-59115344D01*
X212299999Y-58115344D02*
X212109523Y-58115344D01*
X212014285Y-58162964D01*
X211966666Y-58210583D01*
X211871428Y-58353440D01*
X211823809Y-58543916D01*
X211823809Y-58924868D01*
X211871428Y-59020106D01*
X211919047Y-59067725D01*
X212014285Y-59115344D01*
X212204761Y-59115344D01*
X212299999Y-59067725D01*
X212347618Y-59020106D01*
X212395237Y-58924868D01*
X212395237Y-58686773D01*
X212347618Y-58591535D01*
X212299999Y-58543916D01*
X212204761Y-58496297D01*
X212014285Y-58496297D01*
X211919047Y-58543916D01*
X211871428Y-58591535D01*
X211823809Y-58686773D01*
%TO.C,SW36*%
X137339190Y-78117725D02*
X137482047Y-78165344D01*
X137720142Y-78165344D01*
X137815380Y-78117725D01*
X137862999Y-78070106D01*
X137910618Y-77974868D01*
X137910618Y-77879630D01*
X137862999Y-77784392D01*
X137815380Y-77736773D01*
X137720142Y-77689154D01*
X137529666Y-77641535D01*
X137434428Y-77593916D01*
X137386809Y-77546297D01*
X137339190Y-77451059D01*
X137339190Y-77355821D01*
X137386809Y-77260583D01*
X137434428Y-77212964D01*
X137529666Y-77165344D01*
X137767761Y-77165344D01*
X137910618Y-77212964D01*
X138243952Y-77165344D02*
X138482047Y-78165344D01*
X138672523Y-77451059D01*
X138862999Y-78165344D01*
X139101094Y-77165344D01*
X139386809Y-77165344D02*
X140005856Y-77165344D01*
X139672523Y-77546297D01*
X139815380Y-77546297D01*
X139910618Y-77593916D01*
X139958237Y-77641535D01*
X140005856Y-77736773D01*
X140005856Y-77974868D01*
X139958237Y-78070106D01*
X139910618Y-78117725D01*
X139815380Y-78165344D01*
X139529666Y-78165344D01*
X139434428Y-78117725D01*
X139386809Y-78070106D01*
X140862999Y-77165344D02*
X140672523Y-77165344D01*
X140577285Y-77212964D01*
X140529666Y-77260583D01*
X140434428Y-77403440D01*
X140386809Y-77593916D01*
X140386809Y-77974868D01*
X140434428Y-78070106D01*
X140482047Y-78117725D01*
X140577285Y-78165344D01*
X140767761Y-78165344D01*
X140862999Y-78117725D01*
X140910618Y-78070106D01*
X140958237Y-77974868D01*
X140958237Y-77736773D01*
X140910618Y-77641535D01*
X140862999Y-77593916D01*
X140767761Y-77546297D01*
X140577285Y-77546297D01*
X140482047Y-77593916D01*
X140434428Y-77641535D01*
X140386809Y-77736773D01*
%TO.C,SW57*%
X108765190Y-116217725D02*
X108908047Y-116265344D01*
X109146142Y-116265344D01*
X109241380Y-116217725D01*
X109288999Y-116170106D01*
X109336618Y-116074868D01*
X109336618Y-115979630D01*
X109288999Y-115884392D01*
X109241380Y-115836773D01*
X109146142Y-115789154D01*
X108955666Y-115741535D01*
X108860428Y-115693916D01*
X108812809Y-115646297D01*
X108765190Y-115551059D01*
X108765190Y-115455821D01*
X108812809Y-115360583D01*
X108860428Y-115312964D01*
X108955666Y-115265344D01*
X109193761Y-115265344D01*
X109336618Y-115312964D01*
X109669952Y-115265344D02*
X109908047Y-116265344D01*
X110098523Y-115551059D01*
X110288999Y-116265344D01*
X110527094Y-115265344D01*
X111384237Y-115265344D02*
X110908047Y-115265344D01*
X110860428Y-115741535D01*
X110908047Y-115693916D01*
X111003285Y-115646297D01*
X111241380Y-115646297D01*
X111336618Y-115693916D01*
X111384237Y-115741535D01*
X111431856Y-115836773D01*
X111431856Y-116074868D01*
X111384237Y-116170106D01*
X111336618Y-116217725D01*
X111241380Y-116265344D01*
X111003285Y-116265344D01*
X110908047Y-116217725D01*
X110860428Y-116170106D01*
X111765190Y-115265344D02*
X112431856Y-115265344D01*
X112003285Y-116265344D01*
%TO.C,SW52*%
X223064190Y-97167725D02*
X223207047Y-97215344D01*
X223445142Y-97215344D01*
X223540380Y-97167725D01*
X223587999Y-97120106D01*
X223635618Y-97024868D01*
X223635618Y-96929630D01*
X223587999Y-96834392D01*
X223540380Y-96786773D01*
X223445142Y-96739154D01*
X223254666Y-96691535D01*
X223159428Y-96643916D01*
X223111809Y-96596297D01*
X223064190Y-96501059D01*
X223064190Y-96405821D01*
X223111809Y-96310583D01*
X223159428Y-96262964D01*
X223254666Y-96215344D01*
X223492761Y-96215344D01*
X223635618Y-96262964D01*
X223968952Y-96215344D02*
X224207047Y-97215344D01*
X224397523Y-96501059D01*
X224587999Y-97215344D01*
X224826094Y-96215344D01*
X225683237Y-96215344D02*
X225207047Y-96215344D01*
X225159428Y-96691535D01*
X225207047Y-96643916D01*
X225302285Y-96596297D01*
X225540380Y-96596297D01*
X225635618Y-96643916D01*
X225683237Y-96691535D01*
X225730856Y-96786773D01*
X225730856Y-97024868D01*
X225683237Y-97120106D01*
X225635618Y-97167725D01*
X225540380Y-97215344D01*
X225302285Y-97215344D01*
X225207047Y-97167725D01*
X225159428Y-97120106D01*
X226111809Y-96310583D02*
X226159428Y-96262964D01*
X226254666Y-96215344D01*
X226492761Y-96215344D01*
X226587999Y-96262964D01*
X226635618Y-96310583D01*
X226683237Y-96405821D01*
X226683237Y-96501059D01*
X226635618Y-96643916D01*
X226064190Y-97215344D01*
X226683237Y-97215344D01*
%TO.C,SW47*%
X127814190Y-97167725D02*
X127957047Y-97215344D01*
X128195142Y-97215344D01*
X128290380Y-97167725D01*
X128337999Y-97120106D01*
X128385618Y-97024868D01*
X128385618Y-96929630D01*
X128337999Y-96834392D01*
X128290380Y-96786773D01*
X128195142Y-96739154D01*
X128004666Y-96691535D01*
X127909428Y-96643916D01*
X127861809Y-96596297D01*
X127814190Y-96501059D01*
X127814190Y-96405821D01*
X127861809Y-96310583D01*
X127909428Y-96262964D01*
X128004666Y-96215344D01*
X128242761Y-96215344D01*
X128385618Y-96262964D01*
X128718952Y-96215344D02*
X128957047Y-97215344D01*
X129147523Y-96501059D01*
X129337999Y-97215344D01*
X129576094Y-96215344D01*
X130385618Y-96548678D02*
X130385618Y-97215344D01*
X130147523Y-96167725D02*
X129909428Y-96882011D01*
X130528475Y-96882011D01*
X130814190Y-96215344D02*
X131480856Y-96215344D01*
X131052285Y-97215344D01*
%TO.C,SW4*%
X66378380Y-40017725D02*
X66521237Y-40065344D01*
X66759333Y-40065344D01*
X66854571Y-40017725D01*
X66902190Y-39970106D01*
X66949809Y-39874868D01*
X66949809Y-39779630D01*
X66902190Y-39684392D01*
X66854571Y-39636773D01*
X66759333Y-39589154D01*
X66568856Y-39541535D01*
X66473618Y-39493916D01*
X66425999Y-39446297D01*
X66378380Y-39351059D01*
X66378380Y-39255821D01*
X66425999Y-39160583D01*
X66473618Y-39112964D01*
X66568856Y-39065344D01*
X66806952Y-39065344D01*
X66949809Y-39112964D01*
X67283142Y-39065344D02*
X67521237Y-40065344D01*
X67711714Y-39351059D01*
X67902190Y-40065344D01*
X68140285Y-39065344D01*
X68949809Y-39398678D02*
X68949809Y-40065344D01*
X68711714Y-39017725D02*
X68473618Y-39732011D01*
X69092666Y-39732011D01*
%TO.C,SW56*%
X77809190Y-116217725D02*
X77952047Y-116265344D01*
X78190142Y-116265344D01*
X78285380Y-116217725D01*
X78332999Y-116170106D01*
X78380618Y-116074868D01*
X78380618Y-115979630D01*
X78332999Y-115884392D01*
X78285380Y-115836773D01*
X78190142Y-115789154D01*
X77999666Y-115741535D01*
X77904428Y-115693916D01*
X77856809Y-115646297D01*
X77809190Y-115551059D01*
X77809190Y-115455821D01*
X77856809Y-115360583D01*
X77904428Y-115312964D01*
X77999666Y-115265344D01*
X78237761Y-115265344D01*
X78380618Y-115312964D01*
X78713952Y-115265344D02*
X78952047Y-116265344D01*
X79142523Y-115551059D01*
X79332999Y-116265344D01*
X79571094Y-115265344D01*
X80428237Y-115265344D02*
X79952047Y-115265344D01*
X79904428Y-115741535D01*
X79952047Y-115693916D01*
X80047285Y-115646297D01*
X80285380Y-115646297D01*
X80380618Y-115693916D01*
X80428237Y-115741535D01*
X80475856Y-115836773D01*
X80475856Y-116074868D01*
X80428237Y-116170106D01*
X80380618Y-116217725D01*
X80285380Y-116265344D01*
X80047285Y-116265344D01*
X79952047Y-116217725D01*
X79904428Y-116170106D01*
X81332999Y-115265344D02*
X81142523Y-115265344D01*
X81047285Y-115312964D01*
X80999666Y-115360583D01*
X80904428Y-115503440D01*
X80856809Y-115693916D01*
X80856809Y-116074868D01*
X80904428Y-116170106D01*
X80952047Y-116217725D01*
X81047285Y-116265344D01*
X81237761Y-116265344D01*
X81332999Y-116217725D01*
X81380618Y-116170106D01*
X81428237Y-116074868D01*
X81428237Y-115836773D01*
X81380618Y-115741535D01*
X81332999Y-115693916D01*
X81237761Y-115646297D01*
X81047285Y-115646297D01*
X80952047Y-115693916D01*
X80904428Y-115741535D01*
X80856809Y-115836773D01*
%TO.C,SW21*%
X113526190Y-59067725D02*
X113669047Y-59115344D01*
X113907142Y-59115344D01*
X114002380Y-59067725D01*
X114049999Y-59020106D01*
X114097618Y-58924868D01*
X114097618Y-58829630D01*
X114049999Y-58734392D01*
X114002380Y-58686773D01*
X113907142Y-58639154D01*
X113716666Y-58591535D01*
X113621428Y-58543916D01*
X113573809Y-58496297D01*
X113526190Y-58401059D01*
X113526190Y-58305821D01*
X113573809Y-58210583D01*
X113621428Y-58162964D01*
X113716666Y-58115344D01*
X113954761Y-58115344D01*
X114097618Y-58162964D01*
X114430952Y-58115344D02*
X114669047Y-59115344D01*
X114859523Y-58401059D01*
X115049999Y-59115344D01*
X115288094Y-58115344D01*
X115621428Y-58210583D02*
X115669047Y-58162964D01*
X115764285Y-58115344D01*
X116002380Y-58115344D01*
X116097618Y-58162964D01*
X116145237Y-58210583D01*
X116192856Y-58305821D01*
X116192856Y-58401059D01*
X116145237Y-58543916D01*
X115573809Y-59115344D01*
X116192856Y-59115344D01*
X117145237Y-59115344D02*
X116573809Y-59115344D01*
X116859523Y-59115344D02*
X116859523Y-58115344D01*
X116764285Y-58258202D01*
X116669047Y-58353440D01*
X116573809Y-58401059D01*
%TO.C,SW58*%
X146865190Y-116217725D02*
X147008047Y-116265344D01*
X147246142Y-116265344D01*
X147341380Y-116217725D01*
X147388999Y-116170106D01*
X147436618Y-116074868D01*
X147436618Y-115979630D01*
X147388999Y-115884392D01*
X147341380Y-115836773D01*
X147246142Y-115789154D01*
X147055666Y-115741535D01*
X146960428Y-115693916D01*
X146912809Y-115646297D01*
X146865190Y-115551059D01*
X146865190Y-115455821D01*
X146912809Y-115360583D01*
X146960428Y-115312964D01*
X147055666Y-115265344D01*
X147293761Y-115265344D01*
X147436618Y-115312964D01*
X147769952Y-115265344D02*
X148008047Y-116265344D01*
X148198523Y-115551059D01*
X148388999Y-116265344D01*
X148627094Y-115265344D01*
X149484237Y-115265344D02*
X149008047Y-115265344D01*
X148960428Y-115741535D01*
X149008047Y-115693916D01*
X149103285Y-115646297D01*
X149341380Y-115646297D01*
X149436618Y-115693916D01*
X149484237Y-115741535D01*
X149531856Y-115836773D01*
X149531856Y-116074868D01*
X149484237Y-116170106D01*
X149436618Y-116217725D01*
X149341380Y-116265344D01*
X149103285Y-116265344D01*
X149008047Y-116217725D01*
X148960428Y-116170106D01*
X150103285Y-115693916D02*
X150008047Y-115646297D01*
X149960428Y-115598678D01*
X149912809Y-115503440D01*
X149912809Y-115455821D01*
X149960428Y-115360583D01*
X150008047Y-115312964D01*
X150103285Y-115265344D01*
X150293761Y-115265344D01*
X150388999Y-115312964D01*
X150436618Y-115360583D01*
X150484237Y-115455821D01*
X150484237Y-115503440D01*
X150436618Y-115598678D01*
X150388999Y-115646297D01*
X150293761Y-115693916D01*
X150103285Y-115693916D01*
X150008047Y-115741535D01*
X149960428Y-115789154D01*
X149912809Y-115884392D01*
X149912809Y-116074868D01*
X149960428Y-116170106D01*
X150008047Y-116217725D01*
X150103285Y-116265344D01*
X150293761Y-116265344D01*
X150388999Y-116217725D01*
X150436618Y-116170106D01*
X150484237Y-116074868D01*
X150484237Y-115884392D01*
X150436618Y-115789154D01*
X150388999Y-115741535D01*
X150293761Y-115693916D01*
%TO.C,SW31*%
X42089190Y-78117725D02*
X42232047Y-78165344D01*
X42470142Y-78165344D01*
X42565380Y-78117725D01*
X42612999Y-78070106D01*
X42660618Y-77974868D01*
X42660618Y-77879630D01*
X42612999Y-77784392D01*
X42565380Y-77736773D01*
X42470142Y-77689154D01*
X42279666Y-77641535D01*
X42184428Y-77593916D01*
X42136809Y-77546297D01*
X42089190Y-77451059D01*
X42089190Y-77355821D01*
X42136809Y-77260583D01*
X42184428Y-77212964D01*
X42279666Y-77165344D01*
X42517761Y-77165344D01*
X42660618Y-77212964D01*
X42993952Y-77165344D02*
X43232047Y-78165344D01*
X43422523Y-77451059D01*
X43612999Y-78165344D01*
X43851094Y-77165344D01*
X44136809Y-77165344D02*
X44755856Y-77165344D01*
X44422523Y-77546297D01*
X44565380Y-77546297D01*
X44660618Y-77593916D01*
X44708237Y-77641535D01*
X44755856Y-77736773D01*
X44755856Y-77974868D01*
X44708237Y-78070106D01*
X44660618Y-78117725D01*
X44565380Y-78165344D01*
X44279666Y-78165344D01*
X44184428Y-78117725D01*
X44136809Y-78070106D01*
X45708237Y-78165344D02*
X45136809Y-78165344D01*
X45422523Y-78165344D02*
X45422523Y-77165344D01*
X45327285Y-77308202D01*
X45232047Y-77403440D01*
X45136809Y-77451059D01*
%TO.C,SW29*%
X275451190Y-59067725D02*
X275594047Y-59115344D01*
X275832142Y-59115344D01*
X275927380Y-59067725D01*
X275974999Y-59020106D01*
X276022618Y-58924868D01*
X276022618Y-58829630D01*
X275974999Y-58734392D01*
X275927380Y-58686773D01*
X275832142Y-58639154D01*
X275641666Y-58591535D01*
X275546428Y-58543916D01*
X275498809Y-58496297D01*
X275451190Y-58401059D01*
X275451190Y-58305821D01*
X275498809Y-58210583D01*
X275546428Y-58162964D01*
X275641666Y-58115344D01*
X275879761Y-58115344D01*
X276022618Y-58162964D01*
X276355952Y-58115344D02*
X276594047Y-59115344D01*
X276784523Y-58401059D01*
X276974999Y-59115344D01*
X277213094Y-58115344D01*
X277546428Y-58210583D02*
X277594047Y-58162964D01*
X277689285Y-58115344D01*
X277927380Y-58115344D01*
X278022618Y-58162964D01*
X278070237Y-58210583D01*
X278117856Y-58305821D01*
X278117856Y-58401059D01*
X278070237Y-58543916D01*
X277498809Y-59115344D01*
X278117856Y-59115344D01*
X278594047Y-59115344D02*
X278784523Y-59115344D01*
X278879761Y-59067725D01*
X278927380Y-59020106D01*
X279022618Y-58877249D01*
X279070237Y-58686773D01*
X279070237Y-58305821D01*
X279022618Y-58210583D01*
X278974999Y-58162964D01*
X278879761Y-58115344D01*
X278689285Y-58115344D01*
X278594047Y-58162964D01*
X278546428Y-58210583D01*
X278498809Y-58305821D01*
X278498809Y-58543916D01*
X278546428Y-58639154D01*
X278594047Y-58686773D01*
X278689285Y-58734392D01*
X278879761Y-58734392D01*
X278974999Y-58686773D01*
X279022618Y-58639154D01*
X279070237Y-58543916D01*
%TO.C,SW32*%
X61139190Y-78117725D02*
X61282047Y-78165344D01*
X61520142Y-78165344D01*
X61615380Y-78117725D01*
X61662999Y-78070106D01*
X61710618Y-77974868D01*
X61710618Y-77879630D01*
X61662999Y-77784392D01*
X61615380Y-77736773D01*
X61520142Y-77689154D01*
X61329666Y-77641535D01*
X61234428Y-77593916D01*
X61186809Y-77546297D01*
X61139190Y-77451059D01*
X61139190Y-77355821D01*
X61186809Y-77260583D01*
X61234428Y-77212964D01*
X61329666Y-77165344D01*
X61567761Y-77165344D01*
X61710618Y-77212964D01*
X62043952Y-77165344D02*
X62282047Y-78165344D01*
X62472523Y-77451059D01*
X62662999Y-78165344D01*
X62901094Y-77165344D01*
X63186809Y-77165344D02*
X63805856Y-77165344D01*
X63472523Y-77546297D01*
X63615380Y-77546297D01*
X63710618Y-77593916D01*
X63758237Y-77641535D01*
X63805856Y-77736773D01*
X63805856Y-77974868D01*
X63758237Y-78070106D01*
X63710618Y-78117725D01*
X63615380Y-78165344D01*
X63329666Y-78165344D01*
X63234428Y-78117725D01*
X63186809Y-78070106D01*
X64186809Y-77260583D02*
X64234428Y-77212964D01*
X64329666Y-77165344D01*
X64567761Y-77165344D01*
X64662999Y-77212964D01*
X64710618Y-77260583D01*
X64758237Y-77355821D01*
X64758237Y-77451059D01*
X64710618Y-77593916D01*
X64139190Y-78165344D01*
X64758237Y-78165344D01*
%TO.C,SW39*%
X194489190Y-78117725D02*
X194632047Y-78165344D01*
X194870142Y-78165344D01*
X194965380Y-78117725D01*
X195012999Y-78070106D01*
X195060618Y-77974868D01*
X195060618Y-77879630D01*
X195012999Y-77784392D01*
X194965380Y-77736773D01*
X194870142Y-77689154D01*
X194679666Y-77641535D01*
X194584428Y-77593916D01*
X194536809Y-77546297D01*
X194489190Y-77451059D01*
X194489190Y-77355821D01*
X194536809Y-77260583D01*
X194584428Y-77212964D01*
X194679666Y-77165344D01*
X194917761Y-77165344D01*
X195060618Y-77212964D01*
X195393952Y-77165344D02*
X195632047Y-78165344D01*
X195822523Y-77451059D01*
X196012999Y-78165344D01*
X196251094Y-77165344D01*
X196536809Y-77165344D02*
X197155856Y-77165344D01*
X196822523Y-77546297D01*
X196965380Y-77546297D01*
X197060618Y-77593916D01*
X197108237Y-77641535D01*
X197155856Y-77736773D01*
X197155856Y-77974868D01*
X197108237Y-78070106D01*
X197060618Y-78117725D01*
X196965380Y-78165344D01*
X196679666Y-78165344D01*
X196584428Y-78117725D01*
X196536809Y-78070106D01*
X197632047Y-78165344D02*
X197822523Y-78165344D01*
X197917761Y-78117725D01*
X197965380Y-78070106D01*
X198060618Y-77927249D01*
X198108237Y-77736773D01*
X198108237Y-77355821D01*
X198060618Y-77260583D01*
X198012999Y-77212964D01*
X197917761Y-77165344D01*
X197727285Y-77165344D01*
X197632047Y-77212964D01*
X197584428Y-77260583D01*
X197536809Y-77355821D01*
X197536809Y-77593916D01*
X197584428Y-77689154D01*
X197632047Y-77736773D01*
X197727285Y-77784392D01*
X197917761Y-77784392D01*
X198012999Y-77736773D01*
X198060618Y-77689154D01*
X198108237Y-77593916D01*
%TO.C,SW35*%
X118289190Y-78117725D02*
X118432047Y-78165344D01*
X118670142Y-78165344D01*
X118765380Y-78117725D01*
X118812999Y-78070106D01*
X118860618Y-77974868D01*
X118860618Y-77879630D01*
X118812999Y-77784392D01*
X118765380Y-77736773D01*
X118670142Y-77689154D01*
X118479666Y-77641535D01*
X118384428Y-77593916D01*
X118336809Y-77546297D01*
X118289190Y-77451059D01*
X118289190Y-77355821D01*
X118336809Y-77260583D01*
X118384428Y-77212964D01*
X118479666Y-77165344D01*
X118717761Y-77165344D01*
X118860618Y-77212964D01*
X119193952Y-77165344D02*
X119432047Y-78165344D01*
X119622523Y-77451059D01*
X119812999Y-78165344D01*
X120051094Y-77165344D01*
X120336809Y-77165344D02*
X120955856Y-77165344D01*
X120622523Y-77546297D01*
X120765380Y-77546297D01*
X120860618Y-77593916D01*
X120908237Y-77641535D01*
X120955856Y-77736773D01*
X120955856Y-77974868D01*
X120908237Y-78070106D01*
X120860618Y-78117725D01*
X120765380Y-78165344D01*
X120479666Y-78165344D01*
X120384428Y-78117725D01*
X120336809Y-78070106D01*
X121860618Y-77165344D02*
X121384428Y-77165344D01*
X121336809Y-77641535D01*
X121384428Y-77593916D01*
X121479666Y-77546297D01*
X121717761Y-77546297D01*
X121812999Y-77593916D01*
X121860618Y-77641535D01*
X121908237Y-77736773D01*
X121908237Y-77974868D01*
X121860618Y-78070106D01*
X121812999Y-78117725D01*
X121717761Y-78165344D01*
X121479666Y-78165344D01*
X121384428Y-78117725D01*
X121336809Y-78070106D01*
%TO.C,SW23*%
X151626190Y-59067725D02*
X151769047Y-59115344D01*
X152007142Y-59115344D01*
X152102380Y-59067725D01*
X152149999Y-59020106D01*
X152197618Y-58924868D01*
X152197618Y-58829630D01*
X152149999Y-58734392D01*
X152102380Y-58686773D01*
X152007142Y-58639154D01*
X151816666Y-58591535D01*
X151721428Y-58543916D01*
X151673809Y-58496297D01*
X151626190Y-58401059D01*
X151626190Y-58305821D01*
X151673809Y-58210583D01*
X151721428Y-58162964D01*
X151816666Y-58115344D01*
X152054761Y-58115344D01*
X152197618Y-58162964D01*
X152530952Y-58115344D02*
X152769047Y-59115344D01*
X152959523Y-58401059D01*
X153149999Y-59115344D01*
X153388094Y-58115344D01*
X153721428Y-58210583D02*
X153769047Y-58162964D01*
X153864285Y-58115344D01*
X154102380Y-58115344D01*
X154197618Y-58162964D01*
X154245237Y-58210583D01*
X154292856Y-58305821D01*
X154292856Y-58401059D01*
X154245237Y-58543916D01*
X153673809Y-59115344D01*
X154292856Y-59115344D01*
X154626190Y-58115344D02*
X155245237Y-58115344D01*
X154911904Y-58496297D01*
X155054761Y-58496297D01*
X155149999Y-58543916D01*
X155197618Y-58591535D01*
X155245237Y-58686773D01*
X155245237Y-58924868D01*
X155197618Y-59020106D01*
X155149999Y-59067725D01*
X155054761Y-59115344D01*
X154769047Y-59115344D01*
X154673809Y-59067725D01*
X154626190Y-59020106D01*
%TO.C,SW60*%
X201633190Y-116217725D02*
X201776047Y-116265344D01*
X202014142Y-116265344D01*
X202109380Y-116217725D01*
X202156999Y-116170106D01*
X202204618Y-116074868D01*
X202204618Y-115979630D01*
X202156999Y-115884392D01*
X202109380Y-115836773D01*
X202014142Y-115789154D01*
X201823666Y-115741535D01*
X201728428Y-115693916D01*
X201680809Y-115646297D01*
X201633190Y-115551059D01*
X201633190Y-115455821D01*
X201680809Y-115360583D01*
X201728428Y-115312964D01*
X201823666Y-115265344D01*
X202061761Y-115265344D01*
X202204618Y-115312964D01*
X202537952Y-115265344D02*
X202776047Y-116265344D01*
X202966523Y-115551059D01*
X203156999Y-116265344D01*
X203395094Y-115265344D01*
X204204618Y-115265344D02*
X204014142Y-115265344D01*
X203918904Y-115312964D01*
X203871285Y-115360583D01*
X203776047Y-115503440D01*
X203728428Y-115693916D01*
X203728428Y-116074868D01*
X203776047Y-116170106D01*
X203823666Y-116217725D01*
X203918904Y-116265344D01*
X204109380Y-116265344D01*
X204204618Y-116217725D01*
X204252237Y-116170106D01*
X204299856Y-116074868D01*
X204299856Y-115836773D01*
X204252237Y-115741535D01*
X204204618Y-115693916D01*
X204109380Y-115646297D01*
X203918904Y-115646297D01*
X203823666Y-115693916D01*
X203776047Y-115741535D01*
X203728428Y-115836773D01*
X204918904Y-115265344D02*
X205014142Y-115265344D01*
X205109380Y-115312964D01*
X205156999Y-115360583D01*
X205204618Y-115455821D01*
X205252237Y-115646297D01*
X205252237Y-115884392D01*
X205204618Y-116074868D01*
X205156999Y-116170106D01*
X205109380Y-116217725D01*
X205014142Y-116265344D01*
X204918904Y-116265344D01*
X204823666Y-116217725D01*
X204776047Y-116170106D01*
X204728428Y-116074868D01*
X204680809Y-115884392D01*
X204680809Y-115646297D01*
X204728428Y-115455821D01*
X204776047Y-115360583D01*
X204823666Y-115312964D01*
X204918904Y-115265344D01*
%TO.C,SW53*%
X251638690Y-97167725D02*
X251781547Y-97215344D01*
X252019642Y-97215344D01*
X252114880Y-97167725D01*
X252162499Y-97120106D01*
X252210118Y-97024868D01*
X252210118Y-96929630D01*
X252162499Y-96834392D01*
X252114880Y-96786773D01*
X252019642Y-96739154D01*
X251829166Y-96691535D01*
X251733928Y-96643916D01*
X251686309Y-96596297D01*
X251638690Y-96501059D01*
X251638690Y-96405821D01*
X251686309Y-96310583D01*
X251733928Y-96262964D01*
X251829166Y-96215344D01*
X252067261Y-96215344D01*
X252210118Y-96262964D01*
X252543452Y-96215344D02*
X252781547Y-97215344D01*
X252972023Y-96501059D01*
X253162499Y-97215344D01*
X253400594Y-96215344D01*
X254257737Y-96215344D02*
X253781547Y-96215344D01*
X253733928Y-96691535D01*
X253781547Y-96643916D01*
X253876785Y-96596297D01*
X254114880Y-96596297D01*
X254210118Y-96643916D01*
X254257737Y-96691535D01*
X254305356Y-96786773D01*
X254305356Y-97024868D01*
X254257737Y-97120106D01*
X254210118Y-97167725D01*
X254114880Y-97215344D01*
X253876785Y-97215344D01*
X253781547Y-97167725D01*
X253733928Y-97120106D01*
X254638690Y-96215344D02*
X255257737Y-96215344D01*
X254924404Y-96596297D01*
X255067261Y-96596297D01*
X255162499Y-96643916D01*
X255210118Y-96691535D01*
X255257737Y-96786773D01*
X255257737Y-97024868D01*
X255210118Y-97120106D01*
X255162499Y-97167725D01*
X255067261Y-97215344D01*
X254781547Y-97215344D01*
X254686309Y-97167725D01*
X254638690Y-97120106D01*
%TO.C,SW13*%
X237352190Y-40017725D02*
X237495047Y-40065344D01*
X237733142Y-40065344D01*
X237828380Y-40017725D01*
X237875999Y-39970106D01*
X237923618Y-39874868D01*
X237923618Y-39779630D01*
X237875999Y-39684392D01*
X237828380Y-39636773D01*
X237733142Y-39589154D01*
X237542666Y-39541535D01*
X237447428Y-39493916D01*
X237399809Y-39446297D01*
X237352190Y-39351059D01*
X237352190Y-39255821D01*
X237399809Y-39160583D01*
X237447428Y-39112964D01*
X237542666Y-39065344D01*
X237780761Y-39065344D01*
X237923618Y-39112964D01*
X238256952Y-39065344D02*
X238495047Y-40065344D01*
X238685523Y-39351059D01*
X238875999Y-40065344D01*
X239114094Y-39065344D01*
X240018856Y-40065344D02*
X239447428Y-40065344D01*
X239733142Y-40065344D02*
X239733142Y-39065344D01*
X239637904Y-39208202D01*
X239542666Y-39303440D01*
X239447428Y-39351059D01*
X240352190Y-39065344D02*
X240971237Y-39065344D01*
X240637904Y-39446297D01*
X240780761Y-39446297D01*
X240875999Y-39493916D01*
X240923618Y-39541535D01*
X240971237Y-39636773D01*
X240971237Y-39874868D01*
X240923618Y-39970106D01*
X240875999Y-40017725D01*
X240780761Y-40065344D01*
X240495047Y-40065344D01*
X240399809Y-40017725D01*
X240352190Y-39970106D01*
%TO.C,SW30*%
X15895190Y-78117725D02*
X16038047Y-78165344D01*
X16276142Y-78165344D01*
X16371380Y-78117725D01*
X16418999Y-78070106D01*
X16466618Y-77974868D01*
X16466618Y-77879630D01*
X16418999Y-77784392D01*
X16371380Y-77736773D01*
X16276142Y-77689154D01*
X16085666Y-77641535D01*
X15990428Y-77593916D01*
X15942809Y-77546297D01*
X15895190Y-77451059D01*
X15895190Y-77355821D01*
X15942809Y-77260583D01*
X15990428Y-77212964D01*
X16085666Y-77165344D01*
X16323761Y-77165344D01*
X16466618Y-77212964D01*
X16799952Y-77165344D02*
X17038047Y-78165344D01*
X17228523Y-77451059D01*
X17418999Y-78165344D01*
X17657094Y-77165344D01*
X17942809Y-77165344D02*
X18561856Y-77165344D01*
X18228523Y-77546297D01*
X18371380Y-77546297D01*
X18466618Y-77593916D01*
X18514237Y-77641535D01*
X18561856Y-77736773D01*
X18561856Y-77974868D01*
X18514237Y-78070106D01*
X18466618Y-78117725D01*
X18371380Y-78165344D01*
X18085666Y-78165344D01*
X17990428Y-78117725D01*
X17942809Y-78070106D01*
X19180904Y-77165344D02*
X19276142Y-77165344D01*
X19371380Y-77212964D01*
X19418999Y-77260583D01*
X19466618Y-77355821D01*
X19514237Y-77546297D01*
X19514237Y-77784392D01*
X19466618Y-77974868D01*
X19418999Y-78070106D01*
X19371380Y-78117725D01*
X19276142Y-78165344D01*
X19180904Y-78165344D01*
X19085666Y-78117725D01*
X19038047Y-78070106D01*
X18990428Y-77974868D01*
X18942809Y-77784392D01*
X18942809Y-77546297D01*
X18990428Y-77355821D01*
X19038047Y-77260583D01*
X19085666Y-77212964D01*
X19180904Y-77165344D01*
%TO.C,SW19*%
X75426190Y-59067725D02*
X75569047Y-59115344D01*
X75807142Y-59115344D01*
X75902380Y-59067725D01*
X75949999Y-59020106D01*
X75997618Y-58924868D01*
X75997618Y-58829630D01*
X75949999Y-58734392D01*
X75902380Y-58686773D01*
X75807142Y-58639154D01*
X75616666Y-58591535D01*
X75521428Y-58543916D01*
X75473809Y-58496297D01*
X75426190Y-58401059D01*
X75426190Y-58305821D01*
X75473809Y-58210583D01*
X75521428Y-58162964D01*
X75616666Y-58115344D01*
X75854761Y-58115344D01*
X75997618Y-58162964D01*
X76330952Y-58115344D02*
X76569047Y-59115344D01*
X76759523Y-58401059D01*
X76949999Y-59115344D01*
X77188094Y-58115344D01*
X78092856Y-59115344D02*
X77521428Y-59115344D01*
X77807142Y-59115344D02*
X77807142Y-58115344D01*
X77711904Y-58258202D01*
X77616666Y-58353440D01*
X77521428Y-58401059D01*
X78569047Y-59115344D02*
X78759523Y-59115344D01*
X78854761Y-59067725D01*
X78902380Y-59020106D01*
X78997618Y-58877249D01*
X79045237Y-58686773D01*
X79045237Y-58305821D01*
X78997618Y-58210583D01*
X78949999Y-58162964D01*
X78854761Y-58115344D01*
X78664285Y-58115344D01*
X78569047Y-58162964D01*
X78521428Y-58210583D01*
X78473809Y-58305821D01*
X78473809Y-58543916D01*
X78521428Y-58639154D01*
X78569047Y-58686773D01*
X78664285Y-58734392D01*
X78854761Y-58734392D01*
X78949999Y-58686773D01*
X78997618Y-58639154D01*
X79045237Y-58543916D01*
%TO.C,SW22*%
X132576190Y-59067725D02*
X132719047Y-59115344D01*
X132957142Y-59115344D01*
X133052380Y-59067725D01*
X133099999Y-59020106D01*
X133147618Y-58924868D01*
X133147618Y-58829630D01*
X133099999Y-58734392D01*
X133052380Y-58686773D01*
X132957142Y-58639154D01*
X132766666Y-58591535D01*
X132671428Y-58543916D01*
X132623809Y-58496297D01*
X132576190Y-58401059D01*
X132576190Y-58305821D01*
X132623809Y-58210583D01*
X132671428Y-58162964D01*
X132766666Y-58115344D01*
X133004761Y-58115344D01*
X133147618Y-58162964D01*
X133480952Y-58115344D02*
X133719047Y-59115344D01*
X133909523Y-58401059D01*
X134099999Y-59115344D01*
X134338094Y-58115344D01*
X134671428Y-58210583D02*
X134719047Y-58162964D01*
X134814285Y-58115344D01*
X135052380Y-58115344D01*
X135147618Y-58162964D01*
X135195237Y-58210583D01*
X135242856Y-58305821D01*
X135242856Y-58401059D01*
X135195237Y-58543916D01*
X134623809Y-59115344D01*
X135242856Y-59115344D01*
X135623809Y-58210583D02*
X135671428Y-58162964D01*
X135766666Y-58115344D01*
X136004761Y-58115344D01*
X136099999Y-58162964D01*
X136147618Y-58210583D01*
X136195237Y-58305821D01*
X136195237Y-58401059D01*
X136147618Y-58543916D01*
X135576190Y-59115344D01*
X136195237Y-59115344D01*
%TO.C,SW59*%
X190630714Y-114812964D02*
X189630714Y-114812964D01*
X176630714Y-115812964D02*
X176630714Y-114812964D01*
X190630714Y-114812964D02*
X190630714Y-115812964D01*
X190630714Y-128812964D02*
X190630714Y-127812964D01*
X176630714Y-114812964D02*
X177630714Y-114812964D01*
X189630714Y-128812964D02*
X190630714Y-128812964D01*
X176630714Y-127812964D02*
X176630714Y-128812964D01*
X176630714Y-128812964D02*
X177630714Y-128812964D01*
%TO.C,SW61*%
X231398214Y-127812964D02*
X231398214Y-128812964D01*
X245398214Y-114812964D02*
X244398214Y-114812964D01*
X245398214Y-128812964D02*
X245398214Y-127812964D01*
X244398214Y-128812964D02*
X245398214Y-128812964D01*
X231398214Y-128812964D02*
X232398214Y-128812964D01*
X231398214Y-114812964D02*
X232398214Y-114812964D01*
X245398214Y-114812964D02*
X245398214Y-115812964D01*
X231398214Y-115812964D02*
X231398214Y-114812964D01*
%TO.C,SW8*%
X140911714Y-52612964D02*
X141911714Y-52612964D01*
X153911714Y-52612964D02*
X154911714Y-52612964D01*
X140911714Y-39612964D02*
X140911714Y-38612964D01*
X140911714Y-38612964D02*
X141911714Y-38612964D01*
X154911714Y-38612964D02*
X153911714Y-38612964D01*
X154911714Y-38612964D02*
X154911714Y-39612964D01*
X140911714Y-51612964D02*
X140911714Y-52612964D01*
X154911714Y-52612964D02*
X154911714Y-51612964D01*
%TO.C,SW46*%
X107573714Y-96762964D02*
X107573714Y-95762964D01*
X107573714Y-108762964D02*
X107573714Y-109762964D01*
X121573714Y-109762964D02*
X121573714Y-108762964D01*
X107573714Y-95762964D02*
X108573714Y-95762964D01*
X121573714Y-95762964D02*
X121573714Y-96762964D01*
X107573714Y-109762964D02*
X108573714Y-109762964D01*
X121573714Y-95762964D02*
X120573714Y-95762964D01*
X120573714Y-109762964D02*
X121573714Y-109762964D01*
%TO.C,SW55*%
X33825714Y-128812964D02*
X34825714Y-128812964D01*
X33825714Y-114812964D02*
X34825714Y-114812964D01*
X33825714Y-115812964D02*
X33825714Y-114812964D01*
X47825714Y-114812964D02*
X47825714Y-115812964D01*
X46825714Y-128812964D02*
X47825714Y-128812964D01*
X47825714Y-114812964D02*
X46825714Y-114812964D01*
X33825714Y-127812964D02*
X33825714Y-128812964D01*
X47825714Y-128812964D02*
X47825714Y-127812964D01*
%TO.C,SW37*%
X155198714Y-89712964D02*
X155198714Y-90712964D01*
X155198714Y-77712964D02*
X155198714Y-76712964D01*
X155198714Y-90712964D02*
X156198714Y-90712964D01*
X168198714Y-90712964D02*
X169198714Y-90712964D01*
X169198714Y-76712964D02*
X169198714Y-77712964D01*
X169198714Y-90712964D02*
X169198714Y-89712964D01*
X169198714Y-76712964D02*
X168198714Y-76712964D01*
X155198714Y-76712964D02*
X156198714Y-76712964D01*
%TO.C,SW49*%
X164723714Y-109762964D02*
X165723714Y-109762964D01*
X178723714Y-95762964D02*
X177723714Y-95762964D01*
X178723714Y-95762964D02*
X178723714Y-96762964D01*
X178723714Y-109762964D02*
X178723714Y-108762964D01*
X164723714Y-108762964D02*
X164723714Y-109762964D01*
X164723714Y-95762964D02*
X165723714Y-95762964D01*
X177723714Y-109762964D02*
X178723714Y-109762964D01*
X164723714Y-96762964D02*
X164723714Y-95762964D01*
%TO.C,SW51*%
X216823714Y-109762964D02*
X216823714Y-108762964D01*
X202823714Y-108762964D02*
X202823714Y-109762964D01*
X216823714Y-95762964D02*
X216823714Y-96762964D01*
X215823714Y-109762964D02*
X216823714Y-109762964D01*
X202823714Y-109762964D02*
X203823714Y-109762964D01*
X202823714Y-96762964D02*
X202823714Y-95762964D01*
X216823714Y-95762964D02*
X215823714Y-95762964D01*
X202823714Y-95762964D02*
X203823714Y-95762964D01*
%TO.C,SW1*%
X21561714Y-38612964D02*
X20561714Y-38612964D01*
X7561714Y-52612964D02*
X8561714Y-52612964D01*
X21561714Y-38612964D02*
X21561714Y-39612964D01*
X7561714Y-39612964D02*
X7561714Y-38612964D01*
X7561714Y-51612964D02*
X7561714Y-52612964D01*
X21561714Y-52612964D02*
X21561714Y-51612964D01*
X7561714Y-38612964D02*
X8561714Y-38612964D01*
X20561714Y-52612964D02*
X21561714Y-52612964D01*
%TO.C,SW27*%
X231398714Y-70662964D02*
X231398714Y-71662964D01*
X244398714Y-71662964D02*
X245398714Y-71662964D01*
X245398714Y-71662964D02*
X245398714Y-70662964D01*
X245398714Y-57662964D02*
X245398714Y-58662964D01*
X231398714Y-57662964D02*
X232398714Y-57662964D01*
X231398714Y-71662964D02*
X232398714Y-71662964D01*
X231398714Y-58662964D02*
X231398714Y-57662964D01*
X245398714Y-57662964D02*
X244398714Y-57662964D01*
%TO.C,SW17*%
X50135714Y-57662964D02*
X50135714Y-58662964D01*
X36135714Y-58662964D02*
X36135714Y-57662964D01*
X50135714Y-57662964D02*
X49135714Y-57662964D01*
X36135714Y-71662964D02*
X37135714Y-71662964D01*
X50135714Y-71662964D02*
X50135714Y-70662964D01*
X36135714Y-57662964D02*
X37135714Y-57662964D01*
X36135714Y-70662964D02*
X36135714Y-71662964D01*
X49135714Y-71662964D02*
X50135714Y-71662964D01*
%TO.C,U1*%
G36*
X268569714Y-114773464D02*
G01*
X266029714Y-114773464D01*
X266029714Y-81793464D01*
X268569714Y-81793464D01*
X268569714Y-114773464D01*
G37*
D11*
X268569714Y-114773464D02*
X266029714Y-114773464D01*
X266029714Y-81793464D01*
X268569714Y-81793464D01*
X268569714Y-114773464D01*
G36*
X283749714Y-114773464D02*
G01*
X281249714Y-114773464D01*
X281249714Y-81793464D01*
X283749714Y-81793464D01*
X283749714Y-114773464D01*
G37*
X283749714Y-114773464D02*
X281249714Y-114773464D01*
X281249714Y-81793464D01*
X283749714Y-81793464D01*
X283749714Y-114773464D01*
D10*
%TO.C,SW14*%
X268211714Y-52612964D02*
X269211714Y-52612964D01*
X255211714Y-38612964D02*
X256211714Y-38612964D01*
X269211714Y-38612964D02*
X269211714Y-39612964D01*
X255211714Y-51612964D02*
X255211714Y-52612964D01*
X269211714Y-38612964D02*
X268211714Y-38612964D01*
X255211714Y-39612964D02*
X255211714Y-38612964D01*
X255211714Y-52612964D02*
X256211714Y-52612964D01*
X269211714Y-52612964D02*
X269211714Y-51612964D01*
%TO.C,SW3*%
X45661714Y-51612964D02*
X45661714Y-52612964D01*
X45661714Y-38612964D02*
X46661714Y-38612964D01*
X59661714Y-52612964D02*
X59661714Y-51612964D01*
X45661714Y-39612964D02*
X45661714Y-38612964D01*
X58661714Y-52612964D02*
X59661714Y-52612964D01*
X59661714Y-38612964D02*
X59661714Y-39612964D01*
X45661714Y-52612964D02*
X46661714Y-52612964D01*
X59661714Y-38612964D02*
X58661714Y-38612964D01*
%TO.C,SW41*%
X257304714Y-90712964D02*
X257304714Y-89712964D01*
X243304714Y-77712964D02*
X243304714Y-76712964D01*
X243304714Y-90712964D02*
X244304714Y-90712964D01*
D12*
X240304714Y-91967964D02*
X260304714Y-91967964D01*
D10*
X243304714Y-76712964D02*
X244304714Y-76712964D01*
X256304714Y-90712964D02*
X257304714Y-90712964D01*
X257304714Y-76712964D02*
X257304714Y-77712964D01*
X243304714Y-89712964D02*
X243304714Y-90712964D01*
X257304714Y-76712964D02*
X256304714Y-76712964D01*
%TO.C,SW33*%
X92998714Y-76712964D02*
X92998714Y-77712964D01*
X91998714Y-90712964D02*
X92998714Y-90712964D01*
X78998714Y-77712964D02*
X78998714Y-76712964D01*
X78998714Y-76712964D02*
X79998714Y-76712964D01*
X78998714Y-90712964D02*
X79998714Y-90712964D01*
X92998714Y-90712964D02*
X92998714Y-89712964D01*
X78998714Y-89712964D02*
X78998714Y-90712964D01*
X92998714Y-76712964D02*
X91998714Y-76712964D01*
%TO.C,SW11*%
X198061714Y-52612964D02*
X199061714Y-52612964D01*
X212061714Y-38612964D02*
X211061714Y-38612964D01*
X198061714Y-39612964D02*
X198061714Y-38612964D01*
X212061714Y-52612964D02*
X212061714Y-51612964D01*
X198061714Y-51612964D02*
X198061714Y-52612964D01*
X212061714Y-38612964D02*
X212061714Y-39612964D01*
X211061714Y-52612964D02*
X212061714Y-52612964D01*
X198061714Y-38612964D02*
X199061714Y-38612964D01*
%TO.C,SW62*%
X264448214Y-114812964D02*
X263448214Y-114812964D01*
X250448214Y-115812964D02*
X250448214Y-114812964D01*
X250448214Y-128812964D02*
X251448214Y-128812964D01*
X263448214Y-128812964D02*
X264448214Y-128812964D01*
X250448214Y-127812964D02*
X250448214Y-128812964D01*
X264448214Y-128812964D02*
X264448214Y-127812964D01*
X250448214Y-114812964D02*
X251448214Y-114812964D01*
X264448214Y-114812964D02*
X264448214Y-115812964D01*
%TO.C,SW54*%
X24013714Y-114812964D02*
X24013714Y-115812964D01*
X10013714Y-115812964D02*
X10013714Y-114812964D01*
X23013714Y-128812964D02*
X24013714Y-128812964D01*
X10013714Y-128812964D02*
X11013714Y-128812964D01*
X24013714Y-128812964D02*
X24013714Y-127812964D01*
X10013714Y-127812964D02*
X10013714Y-128812964D01*
X10013714Y-114812964D02*
X11013714Y-114812964D01*
X24013714Y-114812964D02*
X23013714Y-114812964D01*
%TO.C,SW50*%
X196773714Y-109762964D02*
X197773714Y-109762964D01*
X183773714Y-96762964D02*
X183773714Y-95762964D01*
X183773714Y-95762964D02*
X184773714Y-95762964D01*
X197773714Y-95762964D02*
X196773714Y-95762964D01*
X197773714Y-109762964D02*
X197773714Y-108762964D01*
X183773714Y-108762964D02*
X183773714Y-109762964D01*
X197773714Y-95762964D02*
X197773714Y-96762964D01*
X183773714Y-109762964D02*
X184773714Y-109762964D01*
%TO.C,SW16*%
X26323714Y-71662964D02*
X26323714Y-70662964D01*
X12323714Y-70662964D02*
X12323714Y-71662964D01*
X12323714Y-58662964D02*
X12323714Y-57662964D01*
X25323714Y-71662964D02*
X26323714Y-71662964D01*
X26323714Y-57662964D02*
X25323714Y-57662964D01*
X26323714Y-57662964D02*
X26323714Y-58662964D01*
X12323714Y-57662964D02*
X13323714Y-57662964D01*
X12323714Y-71662964D02*
X13323714Y-71662964D01*
%TO.C,SW15*%
X274261714Y-39612964D02*
X274261714Y-38612964D01*
X274261714Y-51612964D02*
X274261714Y-52612964D01*
X288261714Y-52612964D02*
X288261714Y-51612964D01*
X288261714Y-38612964D02*
X288261714Y-39612964D01*
X288261714Y-38612964D02*
X287261714Y-38612964D01*
X287261714Y-52612964D02*
X288261714Y-52612964D01*
X274261714Y-52612964D02*
X275261714Y-52612964D01*
X274261714Y-38612964D02*
X275261714Y-38612964D01*
%TO.C,SW42*%
X19467714Y-96762964D02*
X19467714Y-95762964D01*
X33467714Y-95762964D02*
X32467714Y-95762964D01*
X19467714Y-95762964D02*
X20467714Y-95762964D01*
X19467714Y-109762964D02*
X20467714Y-109762964D01*
X33467714Y-109762964D02*
X33467714Y-108762964D01*
X19467714Y-108762964D02*
X19467714Y-109762964D01*
X33467714Y-95762964D02*
X33467714Y-96762964D01*
D12*
X16467714Y-111017964D02*
X36467714Y-111017964D01*
D10*
X32467714Y-109762964D02*
X33467714Y-109762964D01*
%TO.C,SW20*%
X107285714Y-57662964D02*
X107285714Y-58662964D01*
X93285714Y-70662964D02*
X93285714Y-71662964D01*
X106285714Y-71662964D02*
X107285714Y-71662964D01*
X93285714Y-57662964D02*
X94285714Y-57662964D01*
X93285714Y-58662964D02*
X93285714Y-57662964D01*
X107285714Y-57662964D02*
X106285714Y-57662964D01*
X93285714Y-71662964D02*
X94285714Y-71662964D01*
X107285714Y-71662964D02*
X107285714Y-70662964D01*
%TO.C,SW5*%
X83761714Y-52612964D02*
X84761714Y-52612964D01*
X97761714Y-52612964D02*
X97761714Y-51612964D01*
X83761714Y-51612964D02*
X83761714Y-52612964D01*
X97761714Y-38612964D02*
X97761714Y-39612964D01*
X97761714Y-38612964D02*
X96761714Y-38612964D01*
X83761714Y-38612964D02*
X84761714Y-38612964D01*
X83761714Y-39612964D02*
X83761714Y-38612964D01*
X96761714Y-52612964D02*
X97761714Y-52612964D01*
%TO.C,SW34*%
X111048714Y-90712964D02*
X112048714Y-90712964D01*
X98048714Y-76712964D02*
X99048714Y-76712964D01*
X112048714Y-76712964D02*
X112048714Y-77712964D01*
X98048714Y-89712964D02*
X98048714Y-90712964D01*
X98048714Y-90712964D02*
X99048714Y-90712964D01*
X112048714Y-90712964D02*
X112048714Y-89712964D01*
X112048714Y-76712964D02*
X111048714Y-76712964D01*
X98048714Y-77712964D02*
X98048714Y-76712964D01*
%TO.C,SW7*%
X135861714Y-52612964D02*
X135861714Y-51612964D01*
X121861714Y-52612964D02*
X122861714Y-52612964D01*
X121861714Y-38612964D02*
X122861714Y-38612964D01*
X121861714Y-39612964D02*
X121861714Y-38612964D01*
X134861714Y-52612964D02*
X135861714Y-52612964D01*
X121861714Y-51612964D02*
X121861714Y-52612964D01*
X135861714Y-38612964D02*
X134861714Y-38612964D01*
X135861714Y-38612964D02*
X135861714Y-39612964D01*
%TO.C,SW2*%
X40611714Y-38612964D02*
X39611714Y-38612964D01*
X39611714Y-52612964D02*
X40611714Y-52612964D01*
X26611714Y-39612964D02*
X26611714Y-38612964D01*
X26611714Y-51612964D02*
X26611714Y-52612964D01*
X26611714Y-38612964D02*
X27611714Y-38612964D01*
X40611714Y-52612964D02*
X40611714Y-51612964D01*
X40611714Y-38612964D02*
X40611714Y-39612964D01*
X26611714Y-52612964D02*
X27611714Y-52612964D01*
%TO.C,SW28*%
X255210714Y-70662964D02*
X255210714Y-71662964D01*
X255210714Y-58662964D02*
X255210714Y-57662964D01*
X255210714Y-71662964D02*
X256210714Y-71662964D01*
X269210714Y-71662964D02*
X269210714Y-70662964D01*
X255210714Y-57662964D02*
X256210714Y-57662964D01*
X269210714Y-57662964D02*
X268210714Y-57662964D01*
X268210714Y-71662964D02*
X269210714Y-71662964D01*
X269210714Y-57662964D02*
X269210714Y-58662964D01*
%TO.C,SW1*%
X7561714Y-52612964D02*
X7561714Y-51612964D01*
X7561714Y-52612964D02*
X8561714Y-52612964D01*
X21561714Y-51612964D02*
X21561714Y-52612964D01*
X8561714Y-38612964D02*
X7561714Y-38612964D01*
X21561714Y-52612964D02*
X20561714Y-52612964D01*
X21561714Y-39612964D02*
X21561714Y-38612964D01*
X21561714Y-38612964D02*
X20561714Y-38612964D01*
X7561714Y-38612964D02*
X7561714Y-39612964D01*
%TO.C,SW25*%
X188535714Y-57662964D02*
X189535714Y-57662964D01*
X188535714Y-70662964D02*
X188535714Y-71662964D01*
X202535714Y-71662964D02*
X202535714Y-70662964D01*
X202535714Y-57662964D02*
X202535714Y-58662964D01*
X188535714Y-71662964D02*
X189535714Y-71662964D01*
X188535714Y-58662964D02*
X188535714Y-57662964D01*
X202535714Y-57662964D02*
X201535714Y-57662964D01*
X201535714Y-71662964D02*
X202535714Y-71662964D01*
%TO.C,SW45*%
X88523714Y-109762964D02*
X89523714Y-109762964D01*
X102523714Y-95762964D02*
X102523714Y-96762964D01*
X102523714Y-109762964D02*
X102523714Y-108762964D01*
X88523714Y-96762964D02*
X88523714Y-95762964D01*
X101523714Y-109762964D02*
X102523714Y-109762964D01*
X102523714Y-95762964D02*
X101523714Y-95762964D01*
X88523714Y-95762964D02*
X89523714Y-95762964D01*
X88523714Y-108762964D02*
X88523714Y-109762964D01*
%TO.C,SW24*%
X169485714Y-71662964D02*
X170485714Y-71662964D01*
X169485714Y-57662964D02*
X170485714Y-57662964D01*
X169485714Y-58662964D02*
X169485714Y-57662964D01*
X169485714Y-70662964D02*
X169485714Y-71662964D01*
X183485714Y-57662964D02*
X183485714Y-58662964D01*
X183485714Y-71662964D02*
X183485714Y-70662964D01*
X182485714Y-71662964D02*
X183485714Y-71662964D01*
X183485714Y-57662964D02*
X182485714Y-57662964D01*
%TO.C,SW44*%
X69473714Y-95762964D02*
X70473714Y-95762964D01*
X69473714Y-108762964D02*
X69473714Y-109762964D01*
X83473714Y-95762964D02*
X83473714Y-96762964D01*
X83473714Y-95762964D02*
X82473714Y-95762964D01*
X82473714Y-109762964D02*
X83473714Y-109762964D01*
X69473714Y-109762964D02*
X70473714Y-109762964D01*
X83473714Y-109762964D02*
X83473714Y-108762964D01*
X69473714Y-96762964D02*
X69473714Y-95762964D01*
%TO.C,SW40*%
X212348714Y-77712964D02*
X212348714Y-76712964D01*
X212348714Y-90712964D02*
X213348714Y-90712964D01*
X226348714Y-90712964D02*
X226348714Y-89712964D01*
X226348714Y-76712964D02*
X225348714Y-76712964D01*
X226348714Y-76712964D02*
X226348714Y-77712964D01*
X212348714Y-76712964D02*
X213348714Y-76712964D01*
X212348714Y-89712964D02*
X212348714Y-90712964D01*
X225348714Y-90712964D02*
X226348714Y-90712964D01*
%TO.C,SW10*%
X193011714Y-38612964D02*
X193011714Y-39612964D01*
X193011714Y-52612964D02*
X193011714Y-51612964D01*
X179011714Y-52612964D02*
X180011714Y-52612964D01*
X179011714Y-51612964D02*
X179011714Y-52612964D01*
X179011714Y-38612964D02*
X180011714Y-38612964D01*
X179011714Y-39612964D02*
X179011714Y-38612964D01*
X193011714Y-38612964D02*
X192011714Y-38612964D01*
X192011714Y-52612964D02*
X193011714Y-52612964D01*
%TO.C,SW2*%
X26611714Y-38612964D02*
X26611714Y-39612964D01*
X40611714Y-52612964D02*
X39611714Y-52612964D01*
X40611714Y-51612964D02*
X40611714Y-52612964D01*
X26611714Y-52612964D02*
X26611714Y-51612964D01*
X27611714Y-38612964D02*
X26611714Y-38612964D01*
X40611714Y-39612964D02*
X40611714Y-38612964D01*
X40611714Y-38612964D02*
X39611714Y-38612964D01*
X26611714Y-52612964D02*
X27611714Y-52612964D01*
%TO.C,SW43*%
X64423714Y-109762964D02*
X64423714Y-108762964D01*
X50423714Y-96762964D02*
X50423714Y-95762964D01*
X64423714Y-95762964D02*
X64423714Y-96762964D01*
X63423714Y-109762964D02*
X64423714Y-109762964D01*
X50423714Y-95762964D02*
X51423714Y-95762964D01*
X64423714Y-95762964D02*
X63423714Y-95762964D01*
X50423714Y-108762964D02*
X50423714Y-109762964D01*
X50423714Y-109762964D02*
X51423714Y-109762964D01*
%TO.C,SW63*%
X269498214Y-128812964D02*
X270498214Y-128812964D01*
X269498214Y-127812964D02*
X269498214Y-128812964D01*
X283498214Y-114812964D02*
X282498214Y-114812964D01*
X283498214Y-114812964D02*
X283498214Y-115812964D01*
X282498214Y-128812964D02*
X283498214Y-128812964D01*
X269498214Y-114812964D02*
X270498214Y-114812964D01*
X269498214Y-115812964D02*
X269498214Y-114812964D01*
X283498214Y-128812964D02*
X283498214Y-127812964D01*
%TO.C,SW38*%
X174248714Y-90712964D02*
X175248714Y-90712964D01*
X174248714Y-76712964D02*
X175248714Y-76712964D01*
X188248714Y-90712964D02*
X188248714Y-89712964D01*
X187248714Y-90712964D02*
X188248714Y-90712964D01*
X188248714Y-76712964D02*
X187248714Y-76712964D01*
X174248714Y-77712964D02*
X174248714Y-76712964D01*
X188248714Y-76712964D02*
X188248714Y-77712964D01*
X174248714Y-89712964D02*
X174248714Y-90712964D01*
%TO.C,SW6*%
X115811714Y-52612964D02*
X116811714Y-52612964D01*
X102811714Y-39612964D02*
X102811714Y-38612964D01*
X102811714Y-51612964D02*
X102811714Y-52612964D01*
X116811714Y-52612964D02*
X116811714Y-51612964D01*
X102811714Y-52612964D02*
X103811714Y-52612964D01*
X102811714Y-38612964D02*
X103811714Y-38612964D01*
X116811714Y-38612964D02*
X116811714Y-39612964D01*
X116811714Y-38612964D02*
X115811714Y-38612964D01*
%TO.C,SW48*%
X159673714Y-95762964D02*
X158673714Y-95762964D01*
X145673714Y-109762964D02*
X146673714Y-109762964D01*
X159673714Y-95762964D02*
X159673714Y-96762964D01*
X145673714Y-96762964D02*
X145673714Y-95762964D01*
X159673714Y-109762964D02*
X159673714Y-108762964D01*
X145673714Y-95762964D02*
X146673714Y-95762964D01*
X145673714Y-108762964D02*
X145673714Y-109762964D01*
X158673714Y-109762964D02*
X159673714Y-109762964D01*
%TO.C,SW18*%
X69185714Y-57662964D02*
X69185714Y-58662964D01*
X55185714Y-58662964D02*
X55185714Y-57662964D01*
X69185714Y-57662964D02*
X68185714Y-57662964D01*
X68185714Y-71662964D02*
X69185714Y-71662964D01*
X55185714Y-70662964D02*
X55185714Y-71662964D01*
X69185714Y-71662964D02*
X69185714Y-70662964D01*
X55185714Y-57662964D02*
X56185714Y-57662964D01*
X55185714Y-71662964D02*
X56185714Y-71662964D01*
%TO.C,SW12*%
X217111714Y-51612964D02*
X217111714Y-52612964D01*
X231111714Y-38612964D02*
X230111714Y-38612964D01*
X217111714Y-52612964D02*
X218111714Y-52612964D01*
X231111714Y-52612964D02*
X231111714Y-51612964D01*
X217111714Y-38612964D02*
X218111714Y-38612964D01*
X231111714Y-38612964D02*
X231111714Y-39612964D01*
X230111714Y-52612964D02*
X231111714Y-52612964D01*
X217111714Y-39612964D02*
X217111714Y-38612964D01*
%TO.C,SW9*%
X173961714Y-52612964D02*
X173961714Y-51612964D01*
X159961714Y-38612964D02*
X160961714Y-38612964D01*
X159961714Y-52612964D02*
X160961714Y-52612964D01*
X172961714Y-52612964D02*
X173961714Y-52612964D01*
X173961714Y-38612964D02*
X172961714Y-38612964D01*
X159961714Y-39612964D02*
X159961714Y-38612964D01*
X159961714Y-51612964D02*
X159961714Y-52612964D01*
X173961714Y-38612964D02*
X173961714Y-39612964D01*
%TO.C,SW26*%
X207585714Y-58662964D02*
X207585714Y-57662964D01*
X221585714Y-57662964D02*
X220585714Y-57662964D01*
X220585714Y-71662964D02*
X221585714Y-71662964D01*
X221585714Y-57662964D02*
X221585714Y-58662964D01*
X207585714Y-57662964D02*
X208585714Y-57662964D01*
X207585714Y-70662964D02*
X207585714Y-71662964D01*
X221585714Y-71662964D02*
X221585714Y-70662964D01*
X207585714Y-71662964D02*
X208585714Y-71662964D01*
%TO.C,SW36*%
X136148714Y-89712964D02*
X136148714Y-90712964D01*
X150148714Y-76712964D02*
X150148714Y-77712964D01*
X136148714Y-77712964D02*
X136148714Y-76712964D01*
X150148714Y-90712964D02*
X150148714Y-89712964D01*
X136148714Y-90712964D02*
X137148714Y-90712964D01*
X136148714Y-76712964D02*
X137148714Y-76712964D01*
X149148714Y-90712964D02*
X150148714Y-90712964D01*
X150148714Y-76712964D02*
X149148714Y-76712964D01*
%TO.C,SW57*%
X108574714Y-114812964D02*
X107574714Y-114812964D01*
X121574714Y-128812964D02*
X120574714Y-128812964D01*
D12*
X124574714Y-113557964D02*
X104574714Y-113557964D01*
D10*
X107574714Y-114812964D02*
X107574714Y-115812964D01*
X107574714Y-128812964D02*
X107574714Y-127812964D01*
X121574714Y-114812964D02*
X120574714Y-114812964D01*
X121574714Y-115812964D02*
X121574714Y-114812964D01*
X107574714Y-128812964D02*
X108574714Y-128812964D01*
X121574714Y-127812964D02*
X121574714Y-128812964D01*
%TO.C,SW52*%
X235873714Y-109762964D02*
X235873714Y-108762964D01*
X221873714Y-95762964D02*
X222873714Y-95762964D01*
X221873714Y-108762964D02*
X221873714Y-109762964D01*
X221873714Y-109762964D02*
X222873714Y-109762964D01*
X234873714Y-109762964D02*
X235873714Y-109762964D01*
X235873714Y-95762964D02*
X234873714Y-95762964D01*
X221873714Y-96762964D02*
X221873714Y-95762964D01*
X235873714Y-95762964D02*
X235873714Y-96762964D01*
%TO.C,SW47*%
X126623714Y-108762964D02*
X126623714Y-109762964D01*
X140623714Y-95762964D02*
X139623714Y-95762964D01*
X126623714Y-96762964D02*
X126623714Y-95762964D01*
X140623714Y-95762964D02*
X140623714Y-96762964D01*
X126623714Y-95762964D02*
X127623714Y-95762964D01*
X126623714Y-109762964D02*
X127623714Y-109762964D01*
X140623714Y-109762964D02*
X140623714Y-108762964D01*
X139623714Y-109762964D02*
X140623714Y-109762964D01*
%TO.C,SW4*%
X78711714Y-52612964D02*
X78711714Y-51612964D01*
X77711714Y-52612964D02*
X78711714Y-52612964D01*
X64711714Y-39612964D02*
X64711714Y-38612964D01*
X64711714Y-51612964D02*
X64711714Y-52612964D01*
X78711714Y-38612964D02*
X77711714Y-38612964D01*
X78711714Y-38612964D02*
X78711714Y-39612964D01*
X64711714Y-52612964D02*
X65711714Y-52612964D01*
X64711714Y-38612964D02*
X65711714Y-38612964D01*
%TO.C,SW56*%
X76618714Y-127812964D02*
X76618714Y-128812964D01*
X90618714Y-114812964D02*
X90618714Y-115812964D01*
X89618714Y-128812964D02*
X90618714Y-128812964D01*
X90618714Y-128812964D02*
X90618714Y-127812964D01*
X90618714Y-114812964D02*
X89618714Y-114812964D01*
X76618714Y-128812964D02*
X77618714Y-128812964D01*
X76618714Y-115812964D02*
X76618714Y-114812964D01*
X76618714Y-114812964D02*
X77618714Y-114812964D01*
%TO.C,SW21*%
X112335714Y-58662964D02*
X112335714Y-57662964D01*
X126335714Y-57662964D02*
X126335714Y-58662964D01*
X125335714Y-71662964D02*
X126335714Y-71662964D01*
X126335714Y-71662964D02*
X126335714Y-70662964D01*
X112335714Y-71662964D02*
X113335714Y-71662964D01*
X112335714Y-57662964D02*
X113335714Y-57662964D01*
X112335714Y-70662964D02*
X112335714Y-71662964D01*
X126335714Y-57662964D02*
X125335714Y-57662964D01*
%TO.C,SW58*%
X145674714Y-128812964D02*
X146674714Y-128812964D01*
X159674714Y-128812964D02*
X158674714Y-128812964D01*
X146674714Y-114812964D02*
X145674714Y-114812964D01*
X145674714Y-114812964D02*
X145674714Y-115812964D01*
X159674714Y-114812964D02*
X158674714Y-114812964D01*
X159674714Y-115812964D02*
X159674714Y-114812964D01*
X159674714Y-127812964D02*
X159674714Y-128812964D01*
X145674714Y-128812964D02*
X145674714Y-127812964D01*
D12*
X162674714Y-113557964D02*
X142674714Y-113557964D01*
D10*
%TO.C,SW31*%
X40898714Y-89712964D02*
X40898714Y-90712964D01*
X54898714Y-90712964D02*
X54898714Y-89712964D01*
X53898714Y-90712964D02*
X54898714Y-90712964D01*
X54898714Y-76712964D02*
X54898714Y-77712964D01*
X40898714Y-90712964D02*
X41898714Y-90712964D01*
X40898714Y-76712964D02*
X41898714Y-76712964D01*
X54898714Y-76712964D02*
X53898714Y-76712964D01*
X40898714Y-77712964D02*
X40898714Y-76712964D01*
%TO.C,SW29*%
X274260714Y-71662964D02*
X275260714Y-71662964D01*
X288260714Y-57662964D02*
X287260714Y-57662964D01*
X274260714Y-58662964D02*
X274260714Y-57662964D01*
X274260714Y-70662964D02*
X274260714Y-71662964D01*
X287260714Y-71662964D02*
X288260714Y-71662964D01*
X288260714Y-57662964D02*
X288260714Y-58662964D01*
X288260714Y-71662964D02*
X288260714Y-70662964D01*
X274260714Y-57662964D02*
X275260714Y-57662964D01*
%TO.C,SW32*%
X59948714Y-76712964D02*
X60948714Y-76712964D01*
X72948714Y-90712964D02*
X73948714Y-90712964D01*
X59948714Y-77712964D02*
X59948714Y-76712964D01*
X73948714Y-76712964D02*
X73948714Y-77712964D01*
X73948714Y-90712964D02*
X73948714Y-89712964D01*
X59948714Y-90712964D02*
X60948714Y-90712964D01*
X59948714Y-89712964D02*
X59948714Y-90712964D01*
X73948714Y-76712964D02*
X72948714Y-76712964D01*
%TO.C,SW39*%
X207298714Y-76712964D02*
X206298714Y-76712964D01*
X206298714Y-90712964D02*
X207298714Y-90712964D01*
X193298714Y-90712964D02*
X194298714Y-90712964D01*
X193298714Y-89712964D02*
X193298714Y-90712964D01*
X193298714Y-76712964D02*
X194298714Y-76712964D01*
X193298714Y-77712964D02*
X193298714Y-76712964D01*
X207298714Y-76712964D02*
X207298714Y-77712964D01*
X207298714Y-90712964D02*
X207298714Y-89712964D01*
%TO.C,SW35*%
X117098714Y-89712964D02*
X117098714Y-90712964D01*
X117098714Y-77712964D02*
X117098714Y-76712964D01*
X117098714Y-76712964D02*
X118098714Y-76712964D01*
X131098714Y-90712964D02*
X131098714Y-89712964D01*
X131098714Y-76712964D02*
X130098714Y-76712964D01*
X131098714Y-76712964D02*
X131098714Y-77712964D01*
X130098714Y-90712964D02*
X131098714Y-90712964D01*
X117098714Y-90712964D02*
X118098714Y-90712964D01*
%TO.C,SW23*%
X150435714Y-57662964D02*
X151435714Y-57662964D01*
X164435714Y-57662964D02*
X163435714Y-57662964D01*
X164435714Y-71662964D02*
X164435714Y-70662964D01*
X164435714Y-57662964D02*
X164435714Y-58662964D01*
X163435714Y-71662964D02*
X164435714Y-71662964D01*
X150435714Y-70662964D02*
X150435714Y-71662964D01*
X150435714Y-71662964D02*
X151435714Y-71662964D01*
X150435714Y-58662964D02*
X150435714Y-57662964D01*
%TO.C,SW60*%
X200442714Y-127812964D02*
X200442714Y-128812964D01*
X213442714Y-128812964D02*
X214442714Y-128812964D01*
X214442714Y-128812964D02*
X214442714Y-127812964D01*
X214442714Y-114812964D02*
X213442714Y-114812964D01*
X200442714Y-128812964D02*
X201442714Y-128812964D01*
X200442714Y-115812964D02*
X200442714Y-114812964D01*
X214442714Y-114812964D02*
X214442714Y-115812964D01*
X200442714Y-114812964D02*
X201442714Y-114812964D01*
%TO.C,SW53*%
X264448214Y-109762964D02*
X264448214Y-108762964D01*
X250448214Y-96762964D02*
X250448214Y-95762964D01*
X250448214Y-109762964D02*
X251448214Y-109762964D01*
X263448214Y-109762964D02*
X264448214Y-109762964D01*
X250448214Y-108762964D02*
X250448214Y-109762964D01*
X264448214Y-95762964D02*
X263448214Y-95762964D01*
X264448214Y-95762964D02*
X264448214Y-96762964D01*
X250448214Y-95762964D02*
X251448214Y-95762964D01*
%TO.C,SW13*%
X236161714Y-39612964D02*
X236161714Y-38612964D01*
X249161714Y-52612964D02*
X250161714Y-52612964D01*
X236161714Y-52612964D02*
X237161714Y-52612964D01*
X250161714Y-52612964D02*
X250161714Y-51612964D01*
X250161714Y-38612964D02*
X250161714Y-39612964D01*
X250161714Y-38612964D02*
X249161714Y-38612964D01*
X236161714Y-51612964D02*
X236161714Y-52612964D01*
X236161714Y-38612964D02*
X237161714Y-38612964D01*
%TO.C,SW30*%
X27704714Y-90712964D02*
X28704714Y-90712964D01*
X28704714Y-76712964D02*
X27704714Y-76712964D01*
X14704714Y-89712964D02*
X14704714Y-90712964D01*
X28704714Y-90712964D02*
X28704714Y-89712964D01*
X14704714Y-76712964D02*
X15704714Y-76712964D01*
X28704714Y-76712964D02*
X28704714Y-77712964D01*
X14704714Y-77712964D02*
X14704714Y-76712964D01*
X14704714Y-90712964D02*
X15704714Y-90712964D01*
%TO.C,SW19*%
X74235714Y-58662964D02*
X74235714Y-57662964D01*
X74235714Y-57662964D02*
X75235714Y-57662964D01*
X88235714Y-57662964D02*
X88235714Y-58662964D01*
X74235714Y-71662964D02*
X75235714Y-71662964D01*
X88235714Y-57662964D02*
X87235714Y-57662964D01*
X87235714Y-71662964D02*
X88235714Y-71662964D01*
X88235714Y-71662964D02*
X88235714Y-70662964D01*
X74235714Y-70662964D02*
X74235714Y-71662964D01*
%TO.C,SW22*%
X145385714Y-57662964D02*
X145385714Y-58662964D01*
X131385714Y-58662964D02*
X131385714Y-57662964D01*
X131385714Y-70662964D02*
X131385714Y-71662964D01*
X131385714Y-71662964D02*
X132385714Y-71662964D01*
X144385714Y-71662964D02*
X145385714Y-71662964D01*
X145385714Y-71662964D02*
X145385714Y-70662964D01*
X131385714Y-57662964D02*
X132385714Y-57662964D01*
X145385714Y-57662964D02*
X144385714Y-57662964D01*
%TD*%
M02*
