%TF.GenerationSoftware,KiCad,Pcbnew,(6.0.5)*%
%TF.CreationDate,2022-10-29T17:12:18+09:00*%
%TF.ProjectId,tatamikomo,74617461-6d69-46b6-9f6d-6f2e6b696361,rev?*%
%TF.SameCoordinates,Original*%
%TF.FileFunction,Profile,NP*%
%FSLAX46Y46*%
G04 Gerber Fmt 4.6, Leading zero omitted, Abs format (unit mm)*
G04 Created by KiCad (PCBNEW (6.0.5)) date 2022-10-29 17:12:18*
%MOMM*%
%LPD*%
G01*
G04 APERTURE LIST*
%TA.AperFunction,Profile*%
%ADD10C,0.099100*%
%TD*%
%TA.AperFunction,Profile*%
%ADD11C,0.050000*%
%TD*%
G04 APERTURE END LIST*
D10*
X7414214Y-36414214D02*
X288414214Y-36414214D01*
X290414186Y-38414214D02*
G75*
G03*
X288414214Y-36414214I-1999986J14D01*
G01*
X288414214Y-131014214D02*
X7414214Y-131014214D01*
X5414216Y-129014214D02*
G75*
G03*
X7414214Y-131014214I1999994J-6D01*
G01*
X5414214Y-129014214D02*
X5414214Y-38414214D01*
X290414214Y-38414214D02*
X290414214Y-129014214D01*
X7414214Y-36414214D02*
G75*
G03*
X5414214Y-38414214I-4J-1999996D01*
G01*
X288414214Y-131014214D02*
G75*
G03*
X290414214Y-129014214I-14J2000014D01*
G01*
D11*
%TO.C,U1*%
X270409714Y-66793464D02*
X270409714Y-81793464D01*
X279409714Y-81793464D02*
X280409714Y-81793464D01*
X279409714Y-66793464D02*
X279409714Y-81793464D01*
X270409714Y-66793464D02*
X279409714Y-66793464D01*
X280909714Y-114305464D02*
X280409714Y-114805464D01*
X280409714Y-114805464D02*
X269409714Y-114805464D01*
X270409714Y-81793464D02*
X269409714Y-81793464D01*
X280409714Y-81793464D02*
X280909714Y-82293464D01*
X268909714Y-82293464D02*
X269409714Y-81793464D01*
X280909714Y-82293464D02*
X280909714Y-114305464D01*
X268909714Y-114305464D02*
X268909714Y-82293464D01*
X268909714Y-114305464D02*
X269409714Y-114805464D01*
%TO.C,H4*%
X264264114Y-63115014D02*
X266664114Y-63115014D01*
X266664114Y-65515014D02*
X264264114Y-65515014D01*
X264264114Y-63115014D02*
G75*
G03*
X264264114Y-65515014I0J-1200000D01*
G01*
X266664114Y-65515014D02*
G75*
G03*
X266664114Y-63115014I0J1200000D01*
G01*
%TO.C,H5*%
X134814214Y-84614214D02*
X132414214Y-84614214D01*
X132414214Y-82214214D02*
X134814214Y-82214214D01*
X134814214Y-84614214D02*
G75*
G03*
X134814214Y-82214214I0J1200000D01*
G01*
X132414214Y-82214214D02*
G75*
G03*
X132414214Y-84614214I0J-1200000D01*
G01*
%TD*%
M02*
