M48
METRIC,TZ
T1C0.650
T2C1.750
T3C1.900
T4C3.000
T5C3.048
T6C3.988
T7C4.100
%
G90
G05
T1
X20724Y-41839
X26504Y-41839
T2
X9482Y-45613
X19642Y-45613
X28532Y-45613
X38692Y-45613
T3
X9482Y-45613
X11934Y-121813
X14244Y-64663
X16625Y-83713
X19642Y-45613
X21388Y-102763
X22094Y-121813
X24404Y-64663
X26785Y-83713
X28532Y-45613
X31548Y-102763
X35746Y-121813
X38056Y-64663
X38692Y-45613
X42819Y-83713
X45906Y-121813
X47582Y-45613
X48216Y-64663
X52344Y-102763
X52979Y-83713
X57106Y-64663
X57742Y-45613
X61869Y-83713
X62504Y-102763
X66632Y-45613
X67266Y-64663
X71394Y-102763
X72029Y-83713
X76156Y-64663
X76792Y-45613
X78539Y-121813
X80919Y-83713
X81554Y-102763
X85682Y-45613
X86316Y-64663
X88699Y-121813
X90444Y-102763
X91079Y-83713
X95206Y-64663
X95842Y-45613
X99969Y-83713
X100604Y-102763
X104732Y-45613
X105366Y-64663
X109494Y-102763
X109495Y-121813
X110129Y-83713
X114256Y-64663
X114892Y-45613
X119019Y-83713
X119654Y-102763
X119655Y-121813
X123782Y-45613
X124416Y-64663
X128544Y-102763
X129179Y-83713
X133306Y-64663
X133942Y-45613
X138069Y-83713
X138704Y-102763
X142832Y-45613
X143466Y-64663
X147594Y-102763
X147595Y-121813
X148229Y-83713
X152356Y-64663
X152992Y-45613
X157119Y-83713
X157754Y-102763
X157755Y-121813
X161882Y-45613
X162516Y-64663
X166644Y-102763
X167279Y-83713
X171406Y-64663
X172042Y-45613
X176169Y-83713
X176804Y-102763
X178551Y-121813
X180932Y-45613
X181566Y-64663
X185694Y-102763
X186329Y-83713
X188711Y-121813
X190456Y-64663
X191092Y-45613
X195219Y-83713
X195854Y-102763
X199982Y-45613
X200616Y-64663
X202363Y-121813
X204744Y-102763
X205379Y-83713
X209506Y-64663
X210142Y-45613
X212523Y-121813
X214269Y-83713
X214904Y-102763
X219032Y-45613
X219666Y-64663
X223794Y-102763
X224429Y-83713
X229192Y-45613
X233318Y-121813
X233319Y-64663
X233954Y-102763
X238082Y-45613
X243478Y-121813
X243479Y-64663
X245225Y-83713
X248242Y-45613
X252368Y-102763
X252368Y-121813
X255385Y-83713
X257131Y-64663
X257132Y-45613
X262528Y-102763
X262528Y-121813
X267291Y-64663
X267292Y-45613
X271418Y-121813
X276181Y-64663
X276182Y-45613
X281578Y-121813
X286341Y-64663
X286342Y-45613
T4
X12022Y-50693
X13204Y-119273
X15514Y-62123
X17895Y-81173
X18372Y-48153
X19554Y-116733
X21864Y-59583
X22658Y-100223
X24245Y-78633
X29008Y-97683
X31072Y-50693
X37016Y-119273
X37422Y-48153
X39326Y-62123
X43366Y-116733
X44089Y-81173
X45676Y-59583
X48852Y-43073
X50439Y-78633
X53614Y-100223
X55202Y-40533
X58376Y-62123
X59964Y-97683
X63139Y-81173
X64726Y-59583
X67902Y-43073
X69489Y-78633
X72664Y-100223
X74252Y-40533
X77426Y-62123
X79014Y-97683
X79809Y-119273
X82189Y-81173
X83776Y-59583
X86159Y-116733
X86952Y-43073
X88539Y-78633
X91714Y-100223
X93302Y-40533
X96476Y-62123
X98064Y-97683
X101239Y-81173
X102826Y-59583
X106002Y-43073
X107589Y-78633
X110764Y-100223
X110765Y-119273
X112352Y-40533
X115526Y-62123
X117114Y-97683
X117115Y-116733
X120289Y-81173
X121876Y-59583
X125052Y-43073
X126639Y-78633
X129814Y-100223
X131402Y-40533
X134576Y-62123
X136164Y-97683
X139339Y-81173
X140926Y-59583
X144102Y-43073
X145689Y-78633
X148864Y-100223
X148865Y-119273
X150452Y-40533
X153626Y-62123
X155214Y-97683
X155215Y-116733
X158389Y-81173
X159976Y-59583
X163152Y-43073
X164739Y-78633
X167914Y-100223
X169502Y-40533
X172676Y-62123
X174264Y-97683
X177439Y-81173
X179026Y-59583
X179821Y-119273
X182202Y-43073
X183789Y-78633
X186171Y-116733
X186964Y-100223
X188552Y-40533
X191726Y-62123
X193314Y-97683
X196489Y-81173
X198076Y-59583
X201252Y-43073
X202839Y-78633
X203633Y-119273
X206014Y-100223
X207602Y-40533
X209983Y-116733
X210776Y-62123
X212364Y-97683
X215539Y-81173
X217126Y-59583
X220302Y-43073
X221889Y-78633
X225064Y-100223
X226652Y-40533
X231414Y-97683
X234588Y-119273
X234589Y-62123
X239352Y-43073
X240938Y-116733
X240939Y-59583
X245702Y-40533
X246495Y-81173
X252845Y-78633
X253638Y-100223
X253638Y-119273
X258401Y-62123
X258402Y-43073
X259988Y-97683
X259988Y-116733
X264751Y-59583
X264752Y-40533
X272688Y-119273
X277451Y-62123
X277452Y-43073
X279038Y-116733
X283801Y-59583
X283802Y-40533
T5
X14530Y-95778
X38406Y-95778
X102637Y-128798
X126513Y-128798
X140737Y-128798
X164613Y-128798
X238367Y-76728
X262243Y-76728
T6
X14530Y-111018
X14562Y-45613
X33612Y-45613
X38406Y-111018
X102637Y-113558
X126513Y-113558
X140737Y-113558
X164613Y-113558
X238367Y-91968
X262243Y-91968
T7
X14562Y-45613
X17014Y-121813
X19324Y-64663
X21705Y-83713
X26468Y-102763
X33612Y-45613
X40826Y-121813
X43136Y-64663
X47899Y-83713
X52662Y-45613
X57424Y-102763
X62186Y-64663
X66949Y-83713
X71712Y-45613
X76474Y-102763
X81236Y-64663
X83619Y-121813
X85999Y-83713
X90762Y-45613
X95524Y-102763
X100286Y-64663
X105049Y-83713
X109812Y-45613
X114574Y-102763
X114575Y-121813
X119336Y-64663
X124099Y-83713
X128862Y-45613
X133624Y-102763
X138386Y-64663
X143149Y-83713
X147912Y-45613
X152674Y-102763
X152675Y-121813
X157436Y-64663
X162199Y-83713
X166962Y-45613
X171724Y-102763
X176486Y-64663
X181249Y-83713
X183631Y-121813
X186012Y-45613
X190774Y-102763
X195536Y-64663
X200299Y-83713
X205062Y-45613
X207443Y-121813
X209824Y-102763
X214586Y-64663
X219349Y-83713
X224112Y-45613
X228874Y-102763
X238398Y-121813
X238399Y-64663
X243162Y-45613
X250305Y-83713
X257448Y-102763
X257448Y-121813
X262211Y-64663
X262212Y-45613
X276498Y-121813
X281261Y-64663
X281262Y-45613
T0
M30
